<?xml version="1.0" encoding="UTF-8"?>
<svg version="1.1" xmlns="http://www.w3.org/2000/svg" width="500" height="500">
<path d="M0 0 C2.1640625 0.0234375 2.1640625 0.0234375 4.625 0.375 C5.85089844 0.54128906 5.85089844 0.54128906 7.1015625 0.7109375 C7.72804688 0.80632813 8.35453125 0.90171875 9 1 C9 1.66 9 2.32 9 3 C130.44 3 251.88 3 377 3 C377 127.08 377 251.16 377 379 C252.92 379 128.84 379 1 379 C0.67 256.9 0.34 134.8 0 9 C-0.66 9 -1.32 9 -2 9 C-2.125 5.625 -2.125 5.625 -2 2 C-1.34 1.34 -0.68 0.68 0 0 Z " fill="#03062F" transform="translate(61,59)"/>
<path d="M0 0 C55.11 0 110.22 0 167 0 C164.57963642 6.05090895 162.07126635 10.79829966 157 15 C152.33852319 16.40352737 147.89464097 16.26915209 143.05664062 16.13525391 C141.6564657 16.13242916 140.25627598 16.13402436 138.85610962 16.13967896 C135.07439718 16.14253612 131.29588817 16.08395984 127.51491737 16.01393938 C123.55662123 15.95121381 119.59824282 15.94553575 115.63952637 15.9336853 C108.15215259 15.90266479 100.66624758 15.8206908 93.17951918 15.72019041 C84.65249731 15.6082224 76.12540343 15.5533861 67.59782887 15.50323606 C50.06421857 15.39884789 32.53262047 15.21554326 15 15 C15 26.55 15 38.1 15 50 C56.25 50 97.5 50 140 50 C138.1679323 53.6641354 136.07970666 56.83042855 133.6875 60.125 C133.25163574 60.72973145 132.81577148 61.33446289 132.36669922 61.95751953 C131.41640523 63.27528272 130.46485521 64.59214084 129.51220703 65.90820312 C127.9601968 68.05505873 126.41504107 70.20671489 124.87109375 72.359375 C119.63365944 79.65096979 114.35084068 86.9003705 108.9375 94.0625 C104.35646922 100.12750553 99.93072669 106.28668927 95.56567383 112.50854492 C85.80723547 126.41507048 75.74276491 140.09810881 65.65039062 153.76318359 C57.13131595 165.30930225 48.64342176 176.87975478 40.3125 188.5625 C31.11987343 201.45035924 21.84579248 214.27543604 12.40527344 226.9831543 C11.84356445 227.74152588 11.28185547 228.49989746 10.703125 229.28125 C10.20458008 229.95220703 9.70603516 230.62316406 9.19238281 231.31445312 C7.93866265 232.99646374 7.93866265 232.99646374 7 235 C70.36 235 133.72 235 199 235 C199 223.12 199 211.24 199 199 C156.1 199 113.2 199 69 199 C69.33 197.68 69.66 196.36 70 195 C70.66 195 71.32 195 72 195 C72.2578125 194.45214844 72.515625 193.90429688 72.78125 193.33984375 C76.89957119 185.43319506 82.47264639 178.26965238 87.94433594 171.26635742 C92.0660102 165.97048526 95.98109107 160.53516977 99.89453125 155.08447266 C103.94973597 149.44105838 108.05516201 143.83714123 112.1875 138.25 C116.21440771 132.80361008 120.20897795 127.33917612 124.125 121.8125 C128.20784441 116.05239717 132.42267573 110.39881794 136.67138672 104.76025391 C140.84508888 99.21918801 144.93776512 93.62330604 149 88 C150.2287171 86.31217263 151.45790036 84.62468454 152.6875 82.9375 C155.15999807 79.54024872 157.62335328 76.1366321 160.078125 72.7265625 C164.98713679 65.90921205 169.89547189 59.09486516 174.9375 52.375 C175.63488281 51.43914062 176.33226562 50.50328125 177.05078125 49.5390625 C178.29653602 47.91633584 179.58280076 46.32342885 180.91796875 44.7734375 C184.41677953 40.66472269 184.41677953 40.66472269 184.875 35.375 C184.73449219 34.72273438 184.59398437 34.07046875 184.44921875 33.3984375 C183.05519626 25.95556962 182.6142335 17.31412746 186.6796875 10.67578125 C191.95424738 3.98114756 198.0826601 0.7442617 206.515625 -0.31640625 C214.05125016 -0.67469518 219.0979943 1.49372235 224.75 6.375 C230.56892121 13.16374141 232.3597286 18.04527856 232.28515625 26.85546875 C231.68954269 33.42353613 228.65612094 39.34387906 224 44 C220.60166116 46.3477985 217.12407512 48.38513789 213 49 C212.09507812 48.81179687 211.19015625 48.62359375 210.2578125 48.4296875 C206.26380244 47.72251864 203.89567312 47.76008683 200 49 C194.91229014 53.53243072 191.38739096 59.66912 187.72753906 65.35302734 C185.08502467 69.40194495 182.22947175 73.28667391 179.375 77.1875 C178.30157214 78.676715 177.22865117 80.1662955 176.15625 81.65625 C172.62130933 86.54073699 169.00406193 91.3613515 165.3762207 96.17700195 C157.46290001 106.68506778 149.74789291 117.33546496 142.06030273 128.00927734 C137.36801639 134.51419272 132.61140257 140.97045504 127.83569336 147.41430664 C124.17869188 152.35975302 120.62650876 157.34855505 117.234375 162.48046875 C116.82703125 162.98191406 116.4196875 163.48335937 116 164 C115.34 164 114.68 164 114 164 C113.34 165.65 112.68 167.3 112 169 C108.37 173.95 104.74 178.9 101 184 C156.935 184.495 156.935 184.495 214 185 C214 206.45 214 227.9 214 250 C135.13 250 56.26 250 -25 250 C-23.13651661 246.27303322 -20.99405856 243.04208513 -18.5625 239.6875 C-17.89988159 238.76662598 -17.89988159 238.76662598 -17.22387695 237.82714844 C-13.61647886 232.82438211 -9.9685139 227.85136788 -6.31420898 222.8828125 C-2.7265762 218.00198501 0.83049143 213.0997208 4.375 208.1875 C4.91946777 207.43299561 5.46393555 206.67849121 6.02490234 205.90112305 C8.75947587 202.10999146 11.4916322 198.31712652 14.22265625 194.5234375 C20.35332361 186.01338526 26.53511863 177.54406019 32.76708984 169.10791016 C38.90919634 160.78497251 44.95790683 152.39567785 51 144 C58.269725 133.89848925 65.58287967 123.83299102 72.98022461 113.82446289 C76.7594206 108.70417685 80.48438001 103.54994246 84.16381836 98.35766602 C88.35984373 92.45478286 92.67640165 86.64093654 97.00390625 80.83398438 C97.56464844 80.07794922 98.12539062 79.32191406 98.703125 78.54296875 C99.44030762 77.5533313 99.44030762 77.5533313 100.19238281 76.54370117 C102.88326738 72.75705526 105.4232073 68.86518905 108 65 C72.36 65 36.72 65 0 65 C0 43.55 0 22.1 0 0 Z " fill="#1C68B3" transform="translate(143,125)"/>
<path d="M0 0 C55.11 0 110.22 0 167 0 C164.57963642 6.05090895 162.07126635 10.79829966 157 15 C152.33852319 16.40352737 147.89464097 16.26915209 143.05664062 16.13525391 C141.6564657 16.13242916 140.25627598 16.13402436 138.85610962 16.13967896 C135.07439718 16.14253612 131.29588817 16.08395984 127.51491737 16.01393938 C123.55662123 15.95121381 119.59824282 15.94553575 115.63952637 15.9336853 C108.15215259 15.90266479 100.66624758 15.8206908 93.17951918 15.72019041 C84.65249731 15.6082224 76.12540343 15.5533861 67.59782887 15.50323606 C50.06421857 15.39884789 32.53262047 15.21554326 15 15 C15 26.55 15 38.1 15 50 C56.25 50 97.5 50 140 50 C138.1679323 53.6641354 136.07970666 56.83042855 133.6875 60.125 C133.25163574 60.72973145 132.81577148 61.33446289 132.36669922 61.95751953 C131.41640523 63.27528272 130.46485521 64.59214084 129.51220703 65.90820312 C127.9601968 68.05505873 126.41504107 70.20671489 124.87109375 72.359375 C119.63365944 79.65096979 114.35084068 86.9003705 108.9375 94.0625 C104.35646922 100.12750553 99.93072669 106.28668927 95.56567383 112.50854492 C85.80723547 126.41507048 75.74276491 140.09810881 65.65039062 153.76318359 C57.13131595 165.30930225 48.64342176 176.87975478 40.3125 188.5625 C31.14371187 201.41693828 21.88740167 214.2044706 12.49316406 226.89526367 C11.93467773 227.6504126 11.37619141 228.40556152 10.80078125 229.18359375 C10.30747314 229.84931396 9.81416504 230.51503418 9.3059082 231.20092773 C8.16481231 232.77294785 7.07751096 234.38373356 6 236 C10.62 236 15.24 236 20 236 C20 236.33 20 236.66 20 237 C15.05 237.99 15.05 237.99 10 239 C9.505 241.97 9.505 241.97 9 245 C10.258125 245.04125 11.51625 245.0825 12.8125 245.125 C13.52019531 245.14820313 14.22789062 245.17140625 14.95703125 245.1953125 C17.31359719 245.13254462 17.31359719 245.13254462 20 243 C20.66 243 21.32 243 22 243 C23.33783393 242.68521554 24.67203709 242.35412344 26 242 C26.99 243.32 27.98 244.64 29 246 C28.34 246 27.68 246 27 246 C27 246.66 27 247.32 27 248 C32.51772989 247.88193106 38.03527291 247.75769581 43.55273438 247.62768555 C45.43062542 247.58431211 47.30855652 247.54263882 49.18652344 247.50268555 C51.8822844 247.44504124 54.57784327 247.38133019 57.2734375 247.31640625 C58.53756973 247.29133751 58.53756973 247.29133751 59.82723999 247.26576233 C64.0486661 247.26763856 64.0486661 247.26763856 68 246 C68 246.66 68 247.32 68 248 C68.886875 247.835 69.77375 247.67 70.6875 247.5 C80.38058477 246.13202433 90.31068784 247.02233967 100 248 C96.72268641 250.18487573 95.80201564 250.24830836 92.00764465 250.24050903 C90.46166847 250.24463303 90.46166847 250.24463303 88.88446045 250.24884033 C87.75445618 250.24164978 86.6244519 250.23445923 85.46020508 250.22705078 C83.67464455 250.22748886 83.67464455 250.22748886 81.85301208 250.22793579 C78.58876264 250.22678043 75.32468422 250.21674346 72.06046891 250.20278788 C68.64918144 250.1902933 65.23789068 250.18911102 61.82658386 250.18673706 C55.36677887 250.18051854 48.90704149 250.16410272 42.44726628 250.14403808 C35.09305353 250.12169063 27.73883757 250.11068856 20.38459933 250.10064721 C5.25636186 250.0797368 -9.87181231 250.04455361 -25 250 C-23.20986061 246.28340098 -20.97787619 243.01975988 -18.5625 239.6875 C-17.89988159 238.76662598 -17.89988159 238.76662598 -17.22387695 237.82714844 C-13.61647886 232.82438211 -9.9685139 227.85136788 -6.31420898 222.8828125 C-2.7265762 218.00198501 0.83049143 213.0997208 4.375 208.1875 C4.91946777 207.43299561 5.46393555 206.67849121 6.02490234 205.90112305 C8.75947587 202.10999146 11.4916322 198.31712652 14.22265625 194.5234375 C20.35332361 186.01338526 26.53511863 177.54406019 32.76708984 169.10791016 C38.90919634 160.78497251 44.95790683 152.39567785 51 144 C58.269725 133.89848925 65.58287967 123.83299102 72.98022461 113.82446289 C76.7594206 108.70417685 80.48438001 103.54994246 84.16381836 98.35766602 C88.35984373 92.45478286 92.67640165 86.64093654 97.00390625 80.83398438 C97.56464844 80.07794922 98.12539062 79.32191406 98.703125 78.54296875 C99.44030762 77.5533313 99.44030762 77.5533313 100.19238281 76.54370117 C102.88326738 72.75705526 105.4232073 68.86518905 108 65 C72.36 65 36.72 65 0 65 C0 43.55 0 22.1 0 0 Z " fill="#529ED0" transform="translate(143,125)"/>
<path d="M0 0 C5.43518347 3.73288887 9.6562778 8.92977091 11.74609375 15.19921875 C12.61268191 24.66065672 11.02521297 31.1109303 5.93359375 39.01171875 C2.30869138 42.63662112 -2.10461885 45.43150681 -7.25390625 46.19921875 C-8.61128906 45.91691406 -8.61128906 45.91691406 -9.99609375 45.62890625 C-13.99010381 44.92173739 -16.35823313 44.95930558 -20.25390625 46.19921875 C-25.34161611 50.73164947 -28.86651529 56.86833875 -32.52636719 62.55224609 C-35.16888605 66.60117056 -38.02452626 70.48581841 -40.87890625 74.38671875 C-41.94708478 75.86945305 -43.01479654 77.35252372 -44.08203125 78.8359375 C-47.7006988 83.83670404 -51.40768665 88.76959658 -55.13696289 93.68823242 C-58.55102808 98.20561304 -61.77661148 102.81704262 -64.8515625 107.57421875 C-65.31433594 108.11046875 -65.77710938 108.64671875 -66.25390625 109.19921875 C-67.24390625 109.19921875 -68.23390625 109.19921875 -69.25390625 109.19921875 C-69.58390625 109.85921875 -69.91390625 110.51921875 -70.25390625 111.19921875 C-70.91390625 111.19921875 -71.57390625 111.19921875 -72.25390625 111.19921875 C-72.91390625 108.88921875 -73.57390625 106.57921875 -74.25390625 104.19921875 C-76.55544735 103.42119688 -76.55544735 103.42119688 -79.25390625 103.19921875 C-81.61873153 104.32651095 -81.61873153 104.32651095 -83.25390625 106.19921875 C-83.25390625 107.18921875 -83.25390625 108.17921875 -83.25390625 109.19921875 C-82.59390625 109.85921875 -81.93390625 110.51921875 -81.25390625 111.19921875 C-86.00390625 114.19921875 -86.00390625 114.19921875 -88.25390625 114.19921875 C-88.91390625 115.18921875 -89.57390625 116.17921875 -90.25390625 117.19921875 C-91.09375 115.17578125 -91.09375 115.17578125 -91.25390625 112.19921875 C-89.7799262 109.39936568 -87.80310094 107.02670886 -85.81640625 104.57421875 C-84.69729459 103.14111056 -83.57880621 101.70751544 -82.4609375 100.2734375 C-81.91002441 99.57653809 -81.35911133 98.87963867 -80.79150391 98.16162109 C-78.79694995 95.61601539 -76.89348396 93.01092187 -75.00390625 90.38671875 C-74.37355469 89.5153125 -73.74320312 88.64390625 -73.09375 87.74609375 C-72.48660156 86.905625 -71.87945312 86.06515625 -71.25390625 85.19921875 C-70.02518915 83.51139138 -68.79600589 81.82390329 -67.56640625 80.13671875 C-65.09390818 76.73946747 -62.63055297 73.33585085 -60.17578125 69.92578125 C-55.26676946 63.1084308 -50.35843436 56.29408391 -45.31640625 49.57421875 C-44.61902344 48.63835937 -43.92164063 47.7025 -43.203125 46.73828125 C-41.95737023 45.11555459 -40.67110549 43.5226476 -39.3359375 41.97265625 C-35.83712672 37.86394144 -35.83712672 37.86394144 -35.37890625 32.57421875 C-35.51941406 31.92195313 -35.65992188 31.2696875 -35.8046875 30.59765625 C-37.19870999 23.15478837 -37.63967275 14.51334621 -33.57421875 7.875 C-25.54750132 -2.31275674 -11.72240929 -6.72210593 0 0 Z " fill="#ADCAEB" transform="translate(363.25390625,127.80078125)"/>
<path d="M0 0 C2.875 1.5625 2.875 1.5625 4.25 4.6875 C4.559375 6.110625 4.559375 6.110625 4.875 7.5625 C5.205 6.9025 5.535 6.2425 5.875 5.5625 C6.865 5.8925 7.855 6.2225 8.875 6.5625 C6.24590124 11.17019885 3.17920871 15.40423315 0.0625 19.6875 C-0.50355957 20.46867187 -1.06961914 21.24984375 -1.65283203 22.0546875 C-6.49310142 28.72250033 -11.38165263 35.35458391 -16.28735352 41.97436523 C-19.94518066 46.92050329 -23.49791575 51.9101844 -26.890625 57.04296875 C-27.50164062 57.79513672 -27.50164062 57.79513672 -28.125 58.5625 C-28.785 58.5625 -29.445 58.5625 -30.125 58.5625 C-30.785 60.2125 -31.445 61.8625 -32.125 63.5625 C-37.57 70.9875 -37.57 70.9875 -43.125 78.5625 C12.81 79.0575 12.81 79.0575 69.875 79.5625 C69.875 101.0125 69.875 122.4625 69.875 144.5625 C46.775 144.5625 23.675 144.5625 -0.125 144.5625 C-0.125 144.2325 -0.125 143.9025 -0.125 143.5625 C0.86830322 143.53744385 1.86160645 143.5123877 2.88500977 143.48657227 C6.59573674 143.39188551 10.30630302 143.29181837 14.0168457 143.19018555 C15.61804424 143.14706704 17.21928196 143.10537736 18.82055664 143.06518555 C21.13179291 143.00691909 23.44283613 142.94339215 25.75390625 142.87890625 C26.8152755 142.85383751 26.8152755 142.85383751 27.89808655 142.82826233 C32.28991587 142.69947817 36.53527321 142.23204627 40.875 141.5625 C42.29115645 141.52448238 43.70908185 141.51645388 45.125 141.5625 C48.80911922 141.76014235 48.80911922 141.76014235 51.875 140.5625 C54.11286817 140.80495894 56.34275934 141.12638029 58.5625 141.5 C59.74199219 141.69464844 60.92148437 141.88929688 62.13671875 142.08984375 C63.49216797 142.32380859 63.49216797 142.32380859 64.875 142.5625 C64.875 140.9125 64.875 139.2625 64.875 137.5625 C65.535 137.8925 66.195 138.2225 66.875 138.5625 C66.90028819 130.76628306 66.91784068 122.97007664 66.92993164 115.17382812 C66.93497042 112.51985275 66.94180151 109.86588016 66.95043945 107.21191406 C66.96252489 103.40428989 66.96823275 99.59670231 66.97265625 95.7890625 C66.97781754 94.59632721 66.98297882 93.40359192 66.98829651 92.17471313 C66.98837204 91.07372284 66.98844757 89.97273254 66.98852539 88.83837891 C66.990746 87.86575104 66.99296661 86.89312317 66.99525452 85.89102173 C67.02956804 83.53789612 67.02956804 83.53789612 65.875 81.5625 C64.29199097 81.57035522 64.29199097 81.57035522 62.67700195 81.57836914 C31.39799973 81.7184432 0.14590609 81.25431944 -31.125 80.5625 C-31.125 81.5525 -31.125 82.5425 -31.125 83.5625 C-33.43286395 85.58188095 -35.1249203 86.57913719 -38.23828125 86.52734375 C-40.21107721 86.27855421 -42.17026175 85.92694272 -44.125 85.5625 C-44.455 86.2225 -44.785 86.8825 -45.125 87.5625 C-45.785 87.5625 -46.445 87.5625 -47.125 87.5625 C-46.4231424 90.4134288 -46.4231424 90.4134288 -45.125 91.5625 C-43.12749552 91.5625 -41.12944719 91.55894125 -39.1328125 91.5 C-37.125 91.5625 -37.125 91.5625 -34.125 92.5625 C-33.795 91.9025 -33.465 91.2425 -33.125 90.5625 C-32.135 90.8925 -31.145 91.2225 -30.125 91.5625 C-27.62592317 91.65841753 -25.15503087 91.69896525 -22.65600586 91.69189453 C-21.51899986 91.69452301 -21.51899986 91.69452301 -20.35902405 91.69720459 C-17.85260735 91.7016072 -15.34626117 91.69869099 -12.83984375 91.6953125 C-11.10014329 91.69598593 -9.36044293 91.69695628 -7.6207428 91.69821167 C-3.97493595 91.69968643 -0.32915361 91.69754093 3.31665039 91.69287109 C7.99657417 91.68716971 12.67644066 91.69045681 17.35636234 91.69644356 C20.94820083 91.70005154 24.54002566 91.69890956 28.13186455 91.69631577 C29.85789433 91.69564737 31.58392534 91.69647187 33.30995369 91.69879532 C35.71846951 91.70132616 38.12689158 91.69747531 40.53540039 91.69189453 C41.25285431 91.69391876 41.97030823 91.69594299 42.70950317 91.69802856 C46.41647632 91.73414735 46.41647632 91.73414735 49.875 90.5625 C50.37 89.0775 50.37 89.0775 50.875 87.5625 C52.36 88.0575 52.36 88.0575 53.875 88.5625 C53.545 89.5525 53.215 90.5425 52.875 91.5625 C53.514375 91.665625 54.15375 91.76875 54.8125 91.875 C55.493125 92.101875 56.17375 92.32875 56.875 92.5625 C57.875 95.5625 57.875 95.5625 56.875 98.5625 C57.535 98.8925 58.195 99.2225 58.875 99.5625 C58.545 100.5525 58.215 101.5425 57.875 102.5625 C57.83579185 104.56211564 57.83056653 106.56299364 57.875 108.5625 C57.215 108.5625 56.555 108.5625 55.875 108.5625 C56.18372329 111.16716543 56.49681723 113.77117691 56.8125 116.375 C56.89951172 117.11298828 56.98652344 117.85097656 57.07617188 118.61132812 C57.45716546 121.72983121 57.87869374 124.57358122 58.875 127.5625 C57.4375 130.25 57.4375 130.25 55.875 132.5625 C48.125 131.6875 48.125 131.6875 45.875 130.5625 C45.545 131.2225 45.215 131.8825 44.875 132.5625 C43.84533867 132.32135216 43.84533867 132.32135216 42.7948761 132.07533264 C39.53804289 131.50331852 36.46391414 131.40077194 33.15698242 131.35717773 C32.50276306 131.34727814 31.8485437 131.33737854 31.17449951 131.32717896 C29.02652522 131.29576086 26.87852887 131.27088508 24.73046875 131.24609375 C23.23545275 131.22550718 21.74044235 131.20451027 20.24543762 131.18312073 C16.32134552 131.12807585 12.39720242 131.07858947 8.47302246 131.03027344 C4.46439099 130.97992956 0.45583306 130.92431093 -3.55273438 130.86914062 C-11.41009397 130.76177431 -19.26751531 130.66028207 -27.125 130.5625 C-27.125 130.2325 -27.125 129.9025 -27.125 129.5625 C-0.065 129.5625 26.995 129.5625 54.875 129.5625 C54.875 117.6825 54.875 105.8025 54.875 93.5625 C11.975 93.5625 -30.925 93.5625 -75.125 93.5625 C-74.795 92.2425 -74.465 90.9225 -74.125 89.5625 C-73.465 89.5625 -72.805 89.5625 -72.125 89.5625 C-71.8671875 89.01464844 -71.609375 88.46679688 -71.34375 87.90234375 C-67.22542881 79.99569506 -61.65235361 72.83215238 -56.18066406 65.82885742 C-52.05962639 60.5338032 -48.1445349 55.09973437 -44.23266602 49.64916992 C-40.16053383 43.98056667 -36.02984047 38.35819129 -31.875 32.75 C-26.47453566 25.45273995 -21.22290222 18.07448819 -16.125 10.5625 C-15.465 11.2225 -14.805 11.8825 -14.125 12.5625 C-12.805 11.2425 -11.485 9.9225 -10.125 8.5625 C-9.63 9.5525 -9.63 9.5525 -9.125 10.5625 C-8.135 9.9025 -7.145 9.2425 -6.125 8.5625 C-7.115 7.5725 -7.115 7.5725 -8.125 6.5625 C-7.94928436 3.83890762 -7.26708605 2.72037339 -5.4375 0.6875 C-3.125 -0.4375 -3.125 -0.4375 0 0 Z " fill="#185FB1" transform="translate(287.125,230.4375)"/>
<path d="M0 0 C0.66 0.66 1.32 1.32 2 2 C5.39597063 2.21676408 7.75778445 2.08073852 11 1 C11 1.66 11 2.32 11 3 C12.1446875 2.87625 12.1446875 2.87625 13.3125 2.75 C16 3 16 3 17.5625 4.875 C18.036875 5.57625 18.51125 6.2775 19 7 C20.32520503 7.68268138 21.65812182 8.3507041 23 9 C25 12 25 12 25 15 C26.98 15 28.96 15 31 15 C32.59138085 19.17737474 33.21278058 22.53160785 33 27 C33.99 26.505 33.99 26.505 35 26 C35.495 30.455 35.495 30.455 36 35 C37.32 34.01 38.64 33.02 40 32 C40.19436491 34.45796853 40.3807742 36.91609294 40.5625 39.375 C40.61857422 40.07367188 40.67464844 40.77234375 40.73242188 41.4921875 C41.11328125 46.7734375 41.11328125 46.7734375 40 49 C40 50.32 40 51.64 40 53 C38 55.1875 38 55.1875 36.62890625 56.44140625 C33.87185632 59.07944683 31.45412261 62.02551316 28.96484375 64.9140625 C27.08841868 66.90613206 25.2895395 68.50537338 23 70 C22.34 70 21.68 70 21 70 C20.54625 70.515625 20.0925 71.03125 19.625 71.5625 C19.08875 72.036875 18.5525 72.51125 18 73 C16.125 72.6875 16.125 72.6875 14 72 C12.33382885 71.95936168 10.66611905 71.957279 9 72 C8.01 72 7.02 72 6 72 C4.865625 72.350625 3.73125 72.70125 2.5625 73.0625 C-2.31034483 74.34482759 -2.31034483 74.34482759 -5 73 C-5.33 72.01 -5.66 71.02 -6 70 C-8.475 70.495 -8.475 70.495 -11 71 C-10.09522263 69.53426066 -9.17565859 68.07764244 -8.25 66.625 C-7.73953125 65.81289062 -7.2290625 65.00078125 -6.703125 64.1640625 C-4.86572429 61.82938361 -3.79971707 60.93152351 -1 60 C1.515625 59.91015625 1.515625 59.91015625 4.25 60.0625 C10.94009829 60.16954157 15.54538902 59.00831808 20.75 54.75 C27.08963268 47.00156006 28.90751454 39.93224245 28 30 C25.93802287 23.14168477 21.47284662 18.24488326 15.3125 14.6875 C9.05450166 11.79376393 2.75172036 12.28615657 -3.75 14.1875 C-10.01269402 16.5732882 -14.52042615 20.38206258 -17.31640625 26.49609375 C-18.89136003 32.26492444 -18.80996263 39.13033785 -17.58618164 44.97705078 C-17.02495142 47.78084236 -16.61865524 50.15799077 -17.82397461 52.81933594 C-19.05891571 54.61185408 -20.37880669 56.23760196 -21.8125 57.875 C-22.27720703 58.4421875 -22.74191406 59.009375 -23.22070312 59.59375 C-25.06195383 61.82332761 -26.9551366 63.9551366 -29 66 C-29.68855104 63.3223015 -30.11537945 61.4615178 -29.4375 58.75 C-28.78172247 54.6279698 -29.94771322 50.99173251 -31 47 C-30.34 47 -29.68 47 -29 47 C-29.17917969 45.90300781 -29.35835938 44.80601562 -29.54296875 43.67578125 C-29.75876601 42.22149534 -29.97355691 40.76705984 -30.1875 39.3125 C-30.36829102 38.2306543 -30.36829102 38.2306543 -30.55273438 37.12695312 C-31.05905733 33.55002648 -31.14016524 31.31960982 -29.67578125 27.98046875 C-29.12277344 27.32691406 -28.56976563 26.67335937 -28 26 C-27.34 26 -26.68 26 -26 26 C-26.33 24.35 -26.66 22.7 -27 21 C-26.34 21 -25.68 21 -25 21 C-24.67 20.01 -24.34 19.02 -24 18 C-23.01 18 -22.02 18 -21 18 C-21 17.34 -21 16.68 -21 16 C-19.37373596 14.61767557 -17.7074998 13.28062485 -16 12 C-16.33 11.34 -16.66 10.68 -17 10 C-19.02463255 9.34786708 -19.02463255 9.34786708 -21 9 C-18.52348919 5.9291266 -17.33294742 5.0631452 -13.375 4.3125 C-12.26125 4.209375 -11.1475 4.10625 -10 4 C-9.34 3.67 -8.68 3.34 -8 3 C-7.01 3.33 -6.02 3.66 -5 4 C-2.3430809 3.12085312 -2.3430809 3.12085312 0 2 C0 1.34 0 0.68 0 0 Z M-29 22 C-28.01 22.495 -28.01 22.495 -27 23 C-27.99 24.485 -27.99 24.485 -29 26 C-29 24.68 -29 23.36 -29 22 Z " fill="#394468" transform="translate(346,113)"/>
<path d="M0 0 C2.1640625 0.0234375 2.1640625 0.0234375 4.625 0.375 C5.85089844 0.54128906 5.85089844 0.54128906 7.1015625 0.7109375 C7.72804688 0.80632813 8.35453125 0.90171875 9 1 C9 1.66 9 2.32 9 3 C130.44 3 251.88 3 377 3 C377 127.08 377 251.16 377 379 C252.92 379 128.84 379 1 379 C0.67 256.9 0.34 134.8 0 9 C-0.66 9 -1.32 9 -2 9 C-2.125 5.625 -2.125 5.625 -2 2 C-1.34 1.34 -0.68 0.68 0 0 Z M2 4 C2 127.42 2 250.84 2 378 C125.42 378 248.84 378 376 378 C376 254.58 376 131.16 376 4 C252.58 4 129.16 4 2 4 Z " fill="#7F8096" transform="translate(61,59)"/>
<path d="M0 0 C7.73539989 -0.37676225 12.67506398 1.52849986 18.50390625 6.5625 C24.32282746 13.35124141 26.11363485 18.23277856 26.0390625 27.04296875 C25.467382 33.34711678 22.53147094 39.95594271 17.75390625 44.1875 C14.00390625 44.5 14.00390625 44.5 10.75390625 44.1875 C10.42390625 45.1775 10.09390625 46.1675 9.75390625 47.1875 C9.09390625 47.1875 8.43390625 47.1875 7.75390625 47.1875 C7.75390625 46.5275 7.75390625 45.8675 7.75390625 45.1875 C7.09390625 45.1875 6.43390625 45.1875 5.75390625 45.1875 C4.12890625 42.6875 4.12890625 42.6875 2.75390625 40.1875 C5.14899963 37.28817643 7.06635868 36.68581724 10.75390625 36.1875 C10.75390625 35.5275 10.75390625 34.8675 10.75390625 34.1875 C8.77390625 34.6825 8.77390625 34.6825 6.75390625 35.1875 C8.05598958 33.69010417 9.35807292 32.19270833 10.66015625 30.6953125 C11.94963083 29.22813579 11.94963083 29.22813579 11.75390625 27.1875 C12.41390625 27.1875 13.07390625 27.1875 13.75390625 27.1875 C13.35694988 25.55757308 12.93558132 23.93357765 12.50390625 22.3125 C12.271875 21.40757812 12.03984375 20.50265625 11.80078125 19.5703125 C10.95478851 17.10719797 10.95478851 17.10719797 8.97265625 15.875 C6.37034489 15.06865 4.22414449 14.99091478 1.50390625 15.0625 C0.16585938 15.08957031 0.16585938 15.08957031 -1.19921875 15.1171875 C-1.8746875 15.14039063 -2.55015625 15.16359375 -3.24609375 15.1875 C-3.24609375 16.1775 -3.24609375 17.1675 -3.24609375 18.1875 C-3.90609375 18.5175 -4.56609375 18.8475 -5.24609375 19.1875 C-6.56340023 21.15761235 -6.56340023 21.15761235 -7.80859375 23.5 C-8.24300781 24.27988281 -8.67742187 25.05976563 -9.125 25.86328125 C-10.15277466 27.99403359 -10.68673024 29.90588569 -11.24609375 32.1875 C-12.80859375 33.9375 -12.80859375 33.9375 -14.24609375 35.1875 C-13.58609375 35.5175 -12.92609375 35.8475 -12.24609375 36.1875 C-12.49359375 37.115625 -12.49359375 37.115625 -12.74609375 38.0625 C-13.32244019 40.14813386 -13.32244019 40.14813386 -13.24609375 42.1875 C-14.23609375 41.8575 -15.22609375 41.5275 -16.24609375 41.1875 C-17.68359375 37.9375 -17.68359375 37.9375 -18.24609375 34.1875 C-16.62482532 31.54543292 -15.0068912 29.80303779 -12.609375 27.86328125 C-10.72959398 25.55260486 -10.97424402 24.05767549 -11.12109375 21.125 C-11.33111399 16.35754049 -11.33111399 16.35754049 -10.24609375 14.1875 C-10.90609375 14.1875 -11.56609375 14.1875 -12.24609375 14.1875 C-12.57609375 13.5275 -12.90609375 12.8675 -13.24609375 12.1875 C-14.56609375 12.1875 -15.88609375 12.1875 -17.24609375 12.1875 C-16.6575884 9.02428376 -16.00623602 6.83319388 -13.5078125 4.7109375 C-8.96208808 1.78318279 -5.37473736 0.44867373 0 0 Z " fill="#BBD8F3" transform="translate(349.24609375,124.8125)"/>
<path d="M0 0 C0.495 0.99 0.495 0.99 1 2 C1.99 1.67 2.98 1.34 4 1 C4.495 2.485 4.495 2.485 5 4 C3.6875 5.5 3.6875 5.5 2 7 C1.01 7 0.02 7 -1 7 C-1.103125 7.78375 -1.20625 8.5675 -1.3125 9.375 C-2 12 -2 12 -5 14 C-5.66 13.67 -6.32 13.34 -7 13 C-7 14.32 -7 15.64 -7 17 C-7.66 17.33 -8.32 17.66 -9 18 C-9 19.32 -9 20.64 -9 22 C-9.721875 22.144375 -10.44375 22.28875 -11.1875 22.4375 C-14.92885873 24.51603263 -15.992677 27.06369686 -17.88671875 30.80859375 C-19 33 -19 33 -21 36 C-21.66 36 -22.32 36 -23 36 C-23.061875 36.721875 -23.12375 37.44375 -23.1875 38.1875 C-24.25010039 41.86573212 -26.22416973 43.42727926 -29 46 C-29.66 46.99 -30.32 47.98 -31 49 C-30.40985107 49 -29.81970215 49 -29.21166992 49 C-22.14111328 49 -15.07055664 49 -8 49 C-7.21625 48.98839844 -6.4325 48.97679687 -5.625 48.96484375 C-4.325625 48.95130859 -4.325625 48.95130859 -3 48.9375 C-2.13375 48.92589844 -1.2675 48.91429687 -0.375 48.90234375 C2 49 2 49 5 50 C5.495 49.01 5.495 49.01 6 48 C6.99 48.33 7.98 48.66 9 49 C11.49907683 49.09591753 13.96996913 49.13646525 16.46899414 49.12939453 C17.60600014 49.13202301 17.60600014 49.13202301 18.76597595 49.13470459 C21.27239265 49.1391072 23.77873883 49.13619099 26.28515625 49.1328125 C28.02485671 49.13348593 29.76455707 49.13445628 31.5042572 49.13571167 C35.15006405 49.13718643 38.79584639 49.13504093 42.44165039 49.13037109 C47.12157417 49.12466971 51.80144066 49.12795681 56.48136234 49.13394356 C60.07320083 49.13755154 63.66502566 49.13640956 67.25686455 49.13381577 C68.98289433 49.13314737 70.70892534 49.13397187 72.43495369 49.13629532 C74.84346951 49.13882616 77.25189158 49.13497531 79.66040039 49.12939453 C80.37785431 49.13141876 81.09530823 49.13344299 81.83450317 49.13552856 C85.54147632 49.17164735 85.54147632 49.17164735 89 48 C89.33 47.01 89.66 46.02 90 45 C91.485 45.495 91.485 45.495 93 46 C92.67 46.99 92.34 47.98 92 49 C92.639375 49.103125 93.27875 49.20625 93.9375 49.3125 C94.618125 49.539375 95.29875 49.76625 96 50 C97 53 97 53 96 56 C96.66 56.33 97.32 56.66 98 57 C97.67 57.99 97.34 58.98 97 60 C96.96079185 61.99961564 96.95556653 64.00049364 97 66 C96.34 66 95.68 66 95 66 C95.30872329 68.60466543 95.62181723 71.20867691 95.9375 73.8125 C96.02451172 74.55048828 96.11152344 75.28847656 96.20117188 76.04882812 C96.58216546 79.16733121 97.00369374 82.01108122 98 85 C96.5625 87.6875 96.5625 87.6875 95 90 C87.25 89.125 87.25 89.125 85 88 C84.67 88.66 84.34 89.32 84 90 C82.97033867 89.75885216 82.97033867 89.75885216 81.9198761 89.51283264 C78.66304289 88.94081852 75.58891414 88.83827194 72.28198242 88.79467773 C71.30065338 88.77982834 71.30065338 88.77982834 70.29949951 88.76467896 C68.15152522 88.73326086 66.00352887 88.70838508 63.85546875 88.68359375 C62.36045275 88.66300718 60.86544235 88.64201027 59.37043762 88.62062073 C55.44634552 88.56557585 51.52220242 88.51608947 47.59802246 88.46777344 C43.58939099 88.41742956 39.58083306 88.36181093 35.57226562 88.30664062 C27.71490603 88.19927431 19.85748469 88.09778207 12 88 C12 87.67 12 87.34 12 87 C39.06 87 66.12 87 94 87 C94 75.12 94 63.24 94 51 C51.1 51 8.2 51 -36 51 C-35.67 49.68 -35.34 48.36 -35 47 C-34.34 47 -33.68 47 -33 47 C-32.7421875 46.45214844 -32.484375 45.90429688 -32.21875 45.33984375 C-28.10926166 37.45015299 -22.5518374 30.29277528 -17.08642578 23.30810547 C-11.1646283 15.70729625 -5.60593789 7.8348207 0 0 Z " fill="#0D4B99" transform="translate(248,273)"/>
<path d="M0 0 C2.29013653 3.4352048 2.17842973 4.985331 2 9 C3.32 8.01 4.64 7.02 6 6 C6.19436491 8.45796853 6.3807742 10.91609294 6.5625 13.375 C6.64661133 14.42300781 6.64661133 14.42300781 6.73242188 15.4921875 C7.11328125 20.7734375 7.11328125 20.7734375 6 23 C6 24.32 6 25.64 6 27 C4 29.1875 4 29.1875 2.62890625 30.44140625 C-0.12814368 33.07944683 -2.54587739 36.02551316 -5.03515625 38.9140625 C-6.91158132 40.90613206 -8.7104605 42.50537338 -11 44 C-11.66 44 -12.32 44 -13 44 C-13.45375 44.515625 -13.9075 45.03125 -14.375 45.5625 C-14.91125 46.036875 -15.4475 46.51125 -16 47 C-17.875 46.6875 -17.875 46.6875 -20 46 C-21.66617115 45.95936168 -23.33388095 45.957279 -25 46 C-25.99 46 -26.98 46 -28 46 C-29.134375 46.350625 -30.26875 46.70125 -31.4375 47.0625 C-36.31034483 48.34482759 -36.31034483 48.34482759 -39 47 C-39.495 45.515 -39.495 45.515 -40 44 C-42.475 44.495 -42.475 44.495 -45 45 C-41.25 40.125 -41.25 40.125 -39 39 C-36.19520766 38.87805251 -33.71471745 38.79898572 -31 39.5625 C-25.86865901 40.68498084 -21.63570049 38.4880074 -17.3125 35.9375 C-12.31529412 33 -12.31529412 33 -9 33 C-8.87625 32.443125 -8.7525 31.88625 -8.625 31.3125 C-7.66354273 27.75510809 -6.3939251 24.63028015 -4.4375 21.5 C-2.5967774 17.01824063 -2.49556399 12.93132802 -2.30859375 8.12109375 C-2.00421632 5.04264355 -1.29418812 2.7910804 0 0 Z " fill="#293256" transform="translate(380,139)"/>
<path d="M0 0 C0.99 0.33 1.98 0.66 3 1 C3 1.66 3 2.32 3 3 C40.95 3 78.9 3 118 3 C118 3.33 118 3.66 118 4 C71.14 4 24.28 4 -24 4 C-24 15.55 -24 27.1 -24 39 C17.25 39 58.5 39 101 39 C99 43 99 43 97 45 C96.34 44.01 95.68 43.02 95 42 C92.80011268 41.53747529 92.80011268 41.53747529 90.2038269 41.60127258 C89.19137909 41.58873444 88.17893127 41.57619629 87.13580322 41.5632782 C85.46345612 41.56543083 85.46345612 41.56543083 83.75732422 41.56762695 C82.5866037 41.5574353 81.41588318 41.54724365 80.20968628 41.53674316 C76.99496711 41.5116791 73.78052223 41.49987843 70.56572104 41.49388909 C67.2077336 41.48452522 63.84987933 41.45832358 60.49197388 41.43388367 C54.13135908 41.39015998 47.77077003 41.36164921 41.41005051 41.33856028 C34.16943679 41.31153993 26.92895665 41.26762659 19.68843818 41.22227156 C4.79235011 41.12934125 -10.10373577 41.0599294 -25 41 C-25 27.8 -25 14.6 -25 1 C-13.0625 1.0625 -13.0625 1.0625 -9.29321289 1.09008789 C-8.3211792 1.09258545 -7.34914551 1.09508301 -6.34765625 1.09765625 C-5.34742432 1.10289307 -4.34719238 1.10812988 -3.31665039 1.11352539 C-1.03792772 1.26181095 -1.03792772 1.26181095 0 0 Z " fill="#416F9D" transform="translate(182,136)"/>
<path d="M0 0 C2.1640625 0.0234375 2.1640625 0.0234375 4.625 0.375 C5.85089844 0.54128906 5.85089844 0.54128906 7.1015625 0.7109375 C7.72804688 0.80632813 8.35453125 0.90171875 9 1 C9 1.99 9 2.98 9 4 C6.69 4 4.38 4 2 4 C2 127.75 2 251.5 2 379 C1.67 379 1.34 379 1 379 C0.67 256.9 0.34 134.8 0 9 C-0.66 9 -1.32 9 -2 9 C-2.125 5.625 -2.125 5.625 -2 2 C-1.34 1.34 -0.68 0.68 0 0 Z " fill="#82839A" transform="translate(61,59)"/>
<path d="M0 0 C55.11 0 110.22 0 167 0 C165 5 165 5 163 6 C163 4.35 163 2.7 163 1 C109.54 1 56.08 1 1 1 C1.33 4.96 1.66 8.92 2 13 C2.1434622 16.01223108 2.26945843 19.01409091 2.3515625 22.02734375 C2.37471527 22.82298233 2.39786804 23.61862091 2.42172241 24.43836975 C2.46878658 26.10103534 2.51407834 27.76375203 2.55761719 29.42651367 C2.62479328 31.92979672 2.70279525 34.4325951 2.78125 36.93554688 C2.82618305 38.57029443 2.87047487 40.20505977 2.9140625 41.83984375 C2.94990952 42.92953712 2.94990952 42.92953712 2.98648071 44.04124451 C3.14508248 50.82092569 2.52922409 57.12008685 2 64 C35.99 64 69.98 64 105 64 C105 64.33 105 64.66 105 65 C70.35 65 35.7 65 0 65 C0 43.55 0 22.1 0 0 Z " fill="#5991C1" transform="translate(143,125)"/>
<path d="M0 0 C37.62 0 75.24 0 114 0 C114 21.45 114 42.9 114 65 C90.9 65 67.8 65 44 65 C44 64.67 44 64.34 44 64 C44.99330322 63.97494385 45.98660645 63.9498877 47.01000977 63.92407227 C50.72073674 63.82938551 54.43130302 63.72931837 58.1418457 63.62768555 C59.74304424 63.58456704 61.34428196 63.54287736 62.94555664 63.50268555 C65.25679291 63.44441909 67.56783613 63.38089215 69.87890625 63.31640625 C70.58648575 63.29969376 71.29406525 63.28298126 72.02308655 63.26576233 C76.41491587 63.13697817 80.66027321 62.66954627 85 62 C86.41615645 61.96198238 87.83408185 61.95395388 89.25 62 C92.93411922 62.19764235 92.93411922 62.19764235 96 61 C98.23786817 61.24245894 100.46775934 61.56388029 102.6875 61.9375 C103.86699219 62.13214844 105.04648437 62.32679688 106.26171875 62.52734375 C107.61716797 62.76130859 107.61716797 62.76130859 109 63 C109 61.35 109 59.7 109 58 C109.66 58.33 110.32 58.66 111 59 C111.02528819 51.20378306 111.04284068 43.40757664 111.05493164 35.61132812 C111.05997042 32.95735275 111.06680151 30.30338016 111.07543945 27.64941406 C111.08752489 23.84178989 111.09323275 20.03420231 111.09765625 16.2265625 C111.10281754 15.03382721 111.10797882 13.84109192 111.11329651 12.61221313 C111.11340981 10.96072769 111.11340981 10.96072769 111.11352539 9.27587891 C111.115746 8.30325104 111.11796661 7.33062317 111.12025452 6.32852173 C111.15456804 3.97539612 111.15456804 3.97539612 110 2 C73.37 2 36.74 2 -1 2 C-0.67 1.34 -0.34 0.68 0 0 Z " fill="#154A92" transform="translate(243,310)"/>
<path d="M0 0 C3.89756645 -0.4532054 5.48421401 -0.40526042 8.625 2.0625 C15.10670315 10.07934337 15.10670315 10.07934337 14.8125 15.375 C14.544375 16.57125 14.27625 17.7675 14 19 C13.86424611 20.51991115 13.73969686 22.04085495 13.625 23.5625 C13.19544132 27.57853276 12.00874768 30.46460408 10 34 C9.32650839 35.66392045 8.6590841 37.33032028 8 39 C6.641697 42.30835785 5.52820994 43.61048825 2.296875 45.140625 C1.19666016 45.66269531 1.19666016 45.66269531 0.07421875 46.1953125 C-1.07626953 46.71738281 -1.07626953 46.71738281 -2.25 47.25 C-3.00152344 47.61351562 -3.75304687 47.97703125 -4.52734375 48.3515625 C-8.81947564 50.3440705 -12.16507707 51.57058097 -17 51 C-17.33 50.67 -17.66 50.34 -18 50 C-20.67058851 49.85884839 -23.32432238 49.95752893 -26 50 C-24.33570992 45.79547769 -24.33570992 45.79547769 -22 44 C-18.71001355 43.66519812 -15.56757606 43.82068045 -12.265625 43.96875 C-6.53588959 44.02358 -2.72316211 42.40985991 1.75 38.75 C8.08921192 31.00207432 9.90864477 23.93199215 9 14 C7.30812805 8.45544137 3.82685688 4.25206319 0 0 Z " fill="#4B5B7D" transform="translate(365,129)"/>
<path d="M0 0 C0.495 1.485 0.495 1.485 1 3 C-3 3 -3 3 -5.125 2 C-12.41398632 -0.53529959 -20.1409191 0.73502483 -27 4 C-32.10345576 7.37020664 -35.38887648 11.0986847 -37 17 C-37.52031309 23.28039879 -37.3241282 29.46828575 -36.3125 35.6875 C-36 39 -36 39 -37.4375 41 C-38.2109375 41.495 -38.2109375 41.495 -39 42 C-40.3540932 40.01399663 -41.68457624 38.01182457 -43 36 C-43.4125 35.38125 -43.825 34.7625 -44.25 34.125 C-46.57567418 27.53558982 -44.85500108 18.92664462 -41.9296875 12.734375 C-41.62289063 12.16203125 -41.31609375 11.5896875 -41 11 C-40.34 11 -39.68 11 -39 11 C-38.5978125 9.88625 -38.5978125 9.88625 -38.1875 8.75 C-36.13530135 3.99753998 -36.13530135 3.99753998 -34 2 C-29.09555507 0.29116781 -24.18223784 -0.26575579 -19 0 C-19 -0.66 -19 -1.32 -19 -2 C-12.0951765 -4.30160783 -6.3866808 -3.02526985 0 0 Z " fill="#465074" transform="translate(365,125)"/>
<path d="M0 0 C0.66 0 1.32 0 2 0 C1.67 1.32 1.34 2.64 1 4 C0.34 4 -0.32 4 -1 4 C-0.95875 4.845625 -0.9175 5.69125 -0.875 6.5625 C-1.01250315 10.3438365 -1.92088127 13.38177838 -3 17 C-3.98945449 22.06406252 -3.98945449 22.06406252 -3 27 C-2.690625 27.99 -2.38125 28.98 -2.0625 30 C-1.09361378 33.12510205 -1.09361378 33.12510205 1 36 C0.69395106 39.73536658 -1.41394461 42.2810871 -3.5625 45.25 C-4.20316406 46.14203125 -4.84382813 47.0340625 -5.50390625 47.953125 C-6.24447266 48.96632813 -6.24447266 48.96632813 -7 50 C-7.66 49.34 -8.32 48.68 -9 48 C-8.70431363 46.65781579 -8.36381869 45.32533952 -8 44 C-8.05528241 41.50309835 -8.05528241 41.50309835 -8.375 38.9375 C-8.46523438 38.08027344 -8.55546875 37.22304687 -8.6484375 36.33984375 C-8.95360511 33.85291839 -8.95360511 33.85291839 -10 31 C-9.34 31 -8.68 31 -8 31 C-8.17917969 29.90300781 -8.35835938 28.80601562 -8.54296875 27.67578125 C-8.75876601 26.22149534 -8.97355691 24.76705984 -9.1875 23.3125 C-9.36829102 22.2306543 -9.36829102 22.2306543 -9.55273438 21.12695312 C-10.05905733 17.55002648 -10.14016524 15.31960982 -8.67578125 11.98046875 C-8.12277344 11.32691406 -7.56976563 10.67335937 -7 10 C-6.34 10 -5.68 10 -5 10 C-5.33 8.35 -5.66 6.7 -6 5 C-5.34 5 -4.68 5 -4 5 C-3.67 4.01 -3.34 3.02 -3 2 C-2.01 2 -1.02 2 0 2 C0 1.34 0 0.68 0 0 Z M-8 6 C-7.01 6.495 -7.01 6.495 -6 7 C-6.99 8.485 -6.99 8.485 -8 10 C-8 8.68 -8 7.36 -8 6 Z " fill="#333C60" transform="translate(325,129)"/>
<path d="M0 0 C0.99 1.32 1.98 2.64 3 4 C2.236875 4.556875 1.47375 5.11375 0.6875 5.6875 C-1.99667243 7.99713674 -3.52240752 9.79854963 -5 13 C-4.67 13.99 -4.34 14.98 -4 16 C-5.175625 16.12375 -5.175625 16.12375 -6.375 16.25 C-9.08342864 16.72032588 -9.08342864 16.72032588 -10.1875 18.75 C-10.455625 19.4925 -10.72375 20.235 -11 21 C-12.16556086 23.98674972 -13.20533981 26.30800971 -15 29 C-14.34 29.33 -13.68 29.66 -13 30 C-14 32 -14 32 -16.06640625 32.8515625 C-16.89011719 33.10679687 -17.71382813 33.36203125 -18.5625 33.625 C-19.80193359 34.01558594 -19.80193359 34.01558594 -21.06640625 34.4140625 C-21.70449219 34.60742188 -22.34257812 34.80078125 -23 35 C-23 35.66 -23 36.32 -23 37 C-22.01 37 -21.02 37 -20 37 C-20 37.99 -20 38.98 -20 40 C-20.763125 40.12375 -21.52625 40.2475 -22.3125 40.375 C-25.20267136 40.88102792 -25.20267136 40.88102792 -28 43 C-28 43.99 -28 44.98 -28 46 C-27.34 46.66 -26.68 47.32 -26 48 C-30.75 51 -30.75 51 -33 51 C-33.66 51.99 -34.32 52.98 -35 54 C-35.83984375 51.9765625 -35.83984375 51.9765625 -36 49 C-34.52601995 46.20014693 -32.54919469 43.82749011 -30.5625 41.375 C-29.44338834 39.94189181 -28.32489996 38.50829669 -27.20703125 37.07421875 C-26.65611816 36.37731934 -26.10520508 35.68041992 -25.53759766 34.96240234 C-23.5430437 32.41679664 -21.63957771 29.81170312 -19.75 27.1875 C-18.81414062 25.89392578 -18.81414062 25.89392578 -17.859375 24.57421875 C-17.24578125 23.72472656 -16.6321875 22.87523437 -16 22 C-14.6672907 20.16621299 -13.33394811 18.33288607 -12 16.5 C-11.3503125 15.60667969 -10.700625 14.71335938 -10.03125 13.79296875 C-6.6875 9.1953125 -3.34375 4.59765625 0 0 Z " fill="#6A95C9" transform="translate(308,191)"/>
<path d="M0 0 C0.66 0.66 1.32 1.32 2 2 C1.34 2 0.68 2 0 2 C0 2.66 0 3.32 0 4 C1.32 3.67 2.64 3.34 4 3 C4.33 3.99 4.66 4.98 5 6 C5.66 6 6.32 6 7 6 C7 9.96 7 13.92 7 18 C6.01 18.33 5.02 18.66 4 19 C3.566875 20.11375 3.566875 20.11375 3.125 21.25 C1.73024988 24.65938917 -0.31495257 26.52693 -3 29 C-5.70756612 21.87368598 -6.5303492 13.7018421 -4.13671875 6.34765625 C-2.99231393 4.0463622 -1.83558498 1.83558498 0 0 Z " fill="#86BAE0" transform="translate(332,133)"/>
<path d="M0 0 C2.56687367 3.8503105 1.83288724 5.58569763 1 10 C1.99 9.67 2.98 9.34 4 9 C3.42923685 12.99534208 2.09958585 15.588173 0 19 C-0.69579454 21.19130534 -0.69579454 21.19130534 -1 23 C-0.34 23.33 0.32 23.66 1 24 C-1.84268916 28.8749095 -4.58168537 33.3747162 -9 37 C-10.32 37 -11.64 37 -13 37 C-13 37.66 -13 38.32 -13 39 C-24.33712984 43.77676538 -24.33712984 43.77676538 -31 42 C-29 40 -29 40 -26.23046875 39.56640625 C-22.67822594 38.94358254 -20.40485927 37.76186258 -17.3125 35.9375 C-12.31529412 33 -12.31529412 33 -9 33 C-8.87625 32.443125 -8.7525 31.88625 -8.625 31.3125 C-7.66354273 27.75510809 -6.3939251 24.63028015 -4.4375 21.5 C-2.5967774 17.01824063 -2.49556399 12.93132802 -2.30859375 8.12109375 C-2.00421632 5.04264355 -1.29418812 2.7910804 0 0 Z " fill="#394366" transform="translate(380,139)"/>
<path d="M0 0 C0.33 0 0.66 0 1 0 C1.33 1.98 1.66 3.96 2 6 C0.35 6.66 -1.3 7.32 -3 8 C-1.27036206 9.72963794 0.95517249 9.13222745 3.26159668 9.14663696 C4.01533569 9.14618378 4.76907471 9.14573059 5.5456543 9.14526367 C6.33595535 9.14862228 7.12625641 9.1519809 7.94050598 9.15544128 C10.56842599 9.16498452 13.19628246 9.16689644 15.82421875 9.16796875 C17.64687629 9.17118029 19.46953356 9.17454429 21.29219055 9.17805481 C25.12147621 9.18405542 28.95073927 9.18589389 32.7800293 9.18530273 C37.68161515 9.18520136 42.58305535 9.19882426 47.48460674 9.21607494 C51.25332806 9.22721033 55.02201442 9.22922143 58.7907505 9.22869301 C60.59721183 9.22987193 62.4036741 9.23428879 64.21011925 9.24202538 C66.74263962 9.25185105 69.27484736 9.24893648 71.80737305 9.24291992 C72.55099091 9.24853943 73.29460876 9.25415894 74.0607605 9.25994873 C78.416542 9.2337271 81.95000897 8.60312093 86 7 C86 7.66 86 8.32 86 9 C86.886875 8.835 87.77375 8.67 88.6875 8.5 C98.38058477 7.13202433 108.31068784 8.02233967 118 9 C114.72268641 11.18487573 113.80201564 11.24830836 110.00764465 11.24050903 C108.46166847 11.24463303 108.46166847 11.24463303 106.88446045 11.24884033 C105.75445618 11.24164978 104.6244519 11.23445923 103.46020508 11.22705078 C101.67464455 11.22748886 101.67464455 11.22748886 99.85301208 11.22793579 C96.58876264 11.22678043 93.32468422 11.21674346 90.06046891 11.20278788 C86.64918144 11.1902933 83.23789068 11.18911102 79.82658386 11.18673706 C73.36677887 11.18051854 66.90704149 11.16410272 60.44726628 11.14403808 C53.09305353 11.12169063 45.73883757 11.11068856 38.38459933 11.10064721 C23.25636186 11.0797368 8.12818769 11.04455361 -7 11 C-5.64978972 8.24592871 -4.22438327 5.7463026 -2.4375 3.25 C-2.00308594 2.63640625 -1.56867188 2.0228125 -1.12109375 1.390625 C-0.75113281 0.93171875 -0.38117188 0.4728125 0 0 Z " fill="#6697C7" transform="translate(125,364)"/>
<path d="M0 0 C54.78 0 109.56 0 166 0 C164 5 164 5 162 6 C162 4.35 162 2.7 162 1 C108.54 1 55.08 1 0 1 C0 0.67 0 0.34 0 0 Z " fill="#6494C4" transform="translate(144,125)"/>
<path d="M0 0 C0.33 0 0.66 0 1 0 C1.28606738 4.35986473 1.57086633 8.7198099 1.85449219 13.07983398 C1.95114883 14.56292966 2.04815152 16.04600282 2.14550781 17.52905273 C2.2854168 19.66123722 2.42407951 21.79349967 2.5625 23.92578125 C2.64628906 25.20880127 2.73007812 26.49182129 2.81640625 27.8137207 C3.05789814 32.00482523 3.02281702 34.33364415 1 38 C-6.75 37.125 -6.75 37.125 -9 36 C-9.495 36.99 -9.495 36.99 -10 38 C-10.68644089 37.83923477 -11.37288177 37.67846954 -12.0801239 37.51283264 C-15.33695711 36.94081852 -18.41108586 36.83827194 -21.71801758 36.79467773 C-22.37223694 36.78477814 -23.0264563 36.77487854 -23.70050049 36.76467896 C-25.84847478 36.73326086 -27.99647113 36.70838508 -30.14453125 36.68359375 C-31.63954725 36.66300718 -33.13455765 36.64201027 -34.62956238 36.62062073 C-38.55365448 36.56557585 -42.47779758 36.51608947 -46.40197754 36.46777344 C-50.41060901 36.41742956 -54.41916694 36.36181093 -58.42773438 36.30664062 C-66.28509397 36.19927431 -74.14251531 36.09778207 -82 36 C-82 35.67 -82 35.34 -82 35 C-54.94 35 -27.88 35 0 35 C0 23.45 0 11.9 0 0 Z " fill="#0D4188" transform="translate(342,325)"/>
<path d="M0 0 C0.66 0.66 1.32 1.32 2 2 C5.39597063 2.21676408 7.75778445 2.08073852 11 1 C11 1.66 11 2.32 11 3 C11.763125 2.896875 12.52625 2.79375 13.3125 2.6875 C14.199375 2.790625 15.08625 2.89375 16 3 C17.8125 5.5 17.8125 5.5 19 8 C17.35 8 15.7 8 14 8 C14 7.34 14 6.68 14 6 C4.05448778 6.33543043 -6.94869031 7.47434516 -16 12 C-16.33 11.34 -16.66 10.68 -17 10 C-19.02463255 9.34786708 -19.02463255 9.34786708 -21 9 C-18.52348919 5.9291266 -17.33294742 5.0631452 -13.375 4.3125 C-12.26125 4.209375 -11.1475 4.10625 -10 4 C-9.34 3.67 -8.68 3.34 -8 3 C-7.01 3.33 -6.02 3.66 -5 4 C-2.3430809 3.12085312 -2.3430809 3.12085312 0 2 C0 1.34 0 0.68 0 0 Z " fill="#2F385E" transform="translate(346,113)"/>
<path d="M0 0 C0.66 0.33 1.32 0.66 2 1 C0.88321917 2.6721852 -0.24366352 4.33762803 -1.375 6 C-2.00148438 6.928125 -2.62796875 7.85625 -3.2734375 8.8125 C-3.84320313 9.534375 -4.41296875 10.25625 -5 11 C-5.66 11 -6.32 11 -7 11 C-7.22042969 11.66515625 -7.44085938 12.3303125 -7.66796875 13.015625 C-9.42868795 16.96046215 -11.78292871 20.26302125 -14.3125 23.75 C-14.78623047 24.43449219 -15.25996094 25.11898438 -15.74804688 25.82421875 C-19.33292877 30.77733874 -19.33292877 30.77733874 -22.85546875 31.953125 C-23.56316406 31.96859375 -24.27085937 31.9840625 -25 32 C-25 31.34 -25 30.68 -25 30 C-24.34 30 -23.68 30 -23 30 C-23 29.34 -23 28.68 -23 28 C-22.34 28 -21.68 28 -21 28 C-20.67 27.01 -20.34 26.02 -20 25 C-19.67 25 -19.34 25 -19 25 C-18.67 22.69 -18.34 20.38 -18 18 C-17.34 18 -16.68 18 -16 18 C-16 16.02 -16 14.04 -16 12 C-11.5 10.5 -11.5 10.5 -7 9 C-6.26676204 6.98491642 -6.26676204 6.98491642 -6 5 C-5.01 5 -4.02 5 -3 5 C-2.690625 4.360625 -2.38125 3.72125 -2.0625 3.0625 C-1 1 -1 1 0 0 Z " fill="#0B50A0" transform="translate(264,278)"/>
<path d="M0 0 C2.1640625 0.0234375 2.1640625 0.0234375 4.625 0.375 C5.85089844 0.54128906 5.85089844 0.54128906 7.1015625 0.7109375 C7.72804688 0.80632813 8.35453125 0.90171875 9 1 C9 1.99 9 2.98 9 4 C6.69 4 4.38 4 2 4 C2 28.09 2 52.18 2 77 C1.67 77 1.34 77 1 77 C0.67 54.56 0.34 32.12 0 9 C-0.66 9 -1.32 9 -2 9 C-2.125 5.625 -2.125 5.625 -2 2 C-1.34 1.34 -0.68 0.68 0 0 Z " fill="#828298" transform="translate(61,59)"/>
<path d="M0 0 C0.66 0.66 1.32 1.32 2 2 C8.32736366 3.39416487 11.23158982 2.71454597 17 0 C17.99 0.33 18.98 0.66 20 1 C16.53182563 3.68783514 14.15690148 5.19878508 9.75 5.625 C5.97508092 5.60276055 5.97508092 5.60276055 4 8 C2.125 8.44921875 2.125 8.44921875 0 8.6875 C-0.70125 8.77386719 -1.4025 8.86023438 -2.125 8.94921875 C-4 9 -4 9 -6 8 C-6.33 7.01 -6.66 6.02 -7 5 C-8.65 5.33 -10.3 5.66 -12 6 C-8.08864078 0.91523302 -6.51692403 -0.40730775 0 0 Z " fill="#2E375C" transform="translate(347,178)"/>
<path d="M0 0 C0.33 0 0.66 0 1 0 C1 18.48 1 36.96 1 56 C-10.55 56 -22.1 56 -34 56 C-30.49081164 53.66054109 -29.12601003 53.81109038 -25 53.9375 C-21.57036409 54.03416866 -19.27028587 54.09009529 -16 53 C-13.76213183 53.24245894 -11.53224066 53.56388029 -9.3125 53.9375 C-8.13300781 54.13214844 -6.95351563 54.32679688 -5.73828125 54.52734375 C-4.38283203 54.76130859 -4.38283203 54.76130859 -3 55 C-3 53.35 -3 51.7 -3 50 C-2.34 50.33 -1.68 50.66 -1 51 C-1.00523682 49.81035645 -1.01047363 48.62071289 -1.01586914 47.39501953 C-1.03410074 42.940763 -1.0454978 38.4865097 -1.05493164 34.03222656 C-1.05993062 32.11197351 -1.066732 30.1917242 -1.07543945 28.27148438 C-1.08770084 25.49608428 -1.09327281 22.72073493 -1.09765625 19.9453125 C-1.10281754 19.1001004 -1.10797882 18.25488831 -1.11329651 17.38406372 C-1.11383517 11.53542295 -0.68044007 5.80797145 0 0 Z " fill="#0B4F9E" transform="translate(355,318)"/>
<path d="M0 0 C1.20849609 0.00644531 2.41699219 0.01289062 3.66210938 0.01953125 C5.55606445 0.04466797 5.55606445 0.04466797 7.48828125 0.0703125 C8.76251953 0.07933594 10.03675781 0.08835937 11.34960938 0.09765625 C14.50018752 0.12125609 17.65039108 0.15418056 20.80078125 0.1953125 C22.11573533 9.4472916 22.11573533 9.4472916 19.80078125 13.1953125 C17.92578125 14.2578125 17.92578125 14.2578125 15.80078125 15.1953125 C15.16140625 15.8965625 14.52203125 16.5978125 13.86328125 17.3203125 C11.80078125 19.1953125 11.80078125 19.1953125 9.05078125 19.4453125 C8.30828125 19.3628125 7.56578125 19.2803125 6.80078125 19.1953125 C6.80078125 18.5353125 6.80078125 17.8753125 6.80078125 17.1953125 C7.64382813 16.90527344 7.64382813 16.90527344 8.50390625 16.609375 C11.76186064 14.60362757 13.49386721 11.70462129 15.55078125 8.5703125 C17.65453125 5.4146875 17.65453125 5.4146875 19.80078125 2.1953125 C10.23078125 2.1953125 0.66078125 2.1953125 -9.19921875 2.1953125 C-5.6590865 -0.16477567 -4.1879992 -0.03932394 0 0 Z " fill="#04103A" transform="translate(290.19921875,122.8046875)"/>
<path d="M0 0 C0.99 0.33 1.98 0.66 3 1 C2.67 1.66 2.34 2.32 2 3 C2.66 3.66 3.32 4.32 4 5 C4 5.99 4 6.98 4 8 C4.66 8 5.32 8 6 8 C6 8.66 6 9.32 6 10 C6.391875 9.505 6.78375 9.01 7.1875 8.5 C9.55091715 6.54406857 11.01435003 6.75792027 14 7 C11.41255993 10.16242675 8.95065796 11.08288297 5 12 C1.32646549 12.15685891 -2.32576557 12.11768011 -6 12 C-6 7.62548685 -5.59622397 6.99527997 -3 3.75 C-2.443125 3.04359375 -1.88625 2.3371875 -1.3125 1.609375 C-0.879375 1.07828125 -0.44625 0.5471875 0 0 Z " fill="#7DB3D5" transform="translate(351,162)"/>
<path d="M0 0 C0.495 1.485 0.495 1.485 1 3 C-3 3 -3 3 -5.125 2 C-12.41398632 -0.53529959 -20.1409191 0.73502483 -27 4 C-32.28031628 7.48700132 -34.60572636 11.32416307 -37 17 C-38.26641606 13.20075182 -37.60678157 11.60915493 -36.1328125 8.00390625 C-34.1700344 4.53181948 -31.62884616 2.58978022 -28 1 C-24.99410554 0.35963457 -22.06958119 0.07656552 -19 0 C-19 -0.66 -19 -1.32 -19 -2 C-12.0951765 -4.30160783 -6.3866808 -3.02526985 0 0 Z " fill="#4F5E7E" transform="translate(365,125)"/>
<path d="M0 0 C0.66 0 1.32 0 2 0 C2.66 0.66 3.32 1.32 4 2 C7.71386122 2.11944076 11.37287078 2.0428567 15.08398438 1.921875 C20.15917799 1.82129313 24.18957219 2.35144643 29 4 C29 4.33 29 4.66 29 5 C13.49 5 -2.02 5 -18 5 C-13.21609951 2.60804975 -11.18231415 1.88103921 -5.875 1.9375 C-4.77929688 1.94652344 -3.68359375 1.95554687 -2.5546875 1.96484375 C-1.71164062 1.97644531 -0.86859375 1.98804688 0 2 C0 1.34 0 0.68 0 0 Z " fill="#3472B2" transform="translate(258,370)"/>
<path d="M0 0 C1 2 1 2 0.1875 4.5625 C-1 7 -1 7 -3 8 C-3 8.66 -3 9.32 -3 10 C-2.01 10 -1.02 10 0 10 C0 10.99 0 11.98 0 13 C-0.763125 13.12375 -1.52625 13.2475 -2.3125 13.375 C-5.20267136 13.88102792 -5.20267136 13.88102792 -8 16 C-8 16.99 -8 17.98 -8 19 C-7.34 19.66 -6.68 20.32 -6 21 C-10.75 24 -10.75 24 -13 24 C-13.66 24.99 -14.32 25.98 -15 27 C-15.85546875 24.99609375 -15.85546875 24.99609375 -16 22 C-14.43737724 19.098655 -12.38294068 16.61675499 -10.3125 14.0625 C-9.22389064 12.67946249 -8.13662701 11.29536457 -7.05078125 9.91015625 C-6.5295166 9.25160645 -6.00825195 8.59305664 -5.47119141 7.91455078 C-3.5064318 5.35768971 -1.74389372 2.71130922 0 0 Z " fill="#467FC0" transform="translate(288,218)"/>
<path d="M0 0 C0.33 0.66 0.66 1.32 1 2 C1.99 1.67 2.98 1.34 4 1 C4.33 1.99 4.66 2.98 5 4 C3.6875 5.5 3.6875 5.5 2 7 C1.01 7 0.02 7 -1 7 C-1.1546875 8.175625 -1.1546875 8.175625 -1.3125 9.375 C-2 12 -2 12 -5 14 C-5.66 13.67 -6.32 13.34 -7 13 C-7 14.32 -7 15.64 -7 17 C-7.66 17.33 -8.32 17.66 -9 18 C-9 19.32 -9 20.64 -9 22 C-9.99 21.67 -10.98 21.34 -12 21 C-9.87756685 12.51026741 -5.41567105 6.70998237 0 0 Z " fill="#0A4EA0" transform="translate(248,273)"/>
<path d="M0 0 C3.89756645 -0.4532054 5.48421401 -0.40526042 8.625 2.0625 C15.12083656 10.09682417 15.12083656 10.09682417 14.75 15.9375 C14.37875 17.4534375 14.37875 17.4534375 14 19 C11.29374964 17.99289228 10.21176254 17.42883811 8.91015625 14.79296875 C8.63042969 13.93316406 8.35070312 13.07335937 8.0625 12.1875 C6.38309427 7.56913425 4.68309601 5.18538034 1 2 C0.67 1.34 0.34 0.68 0 0 Z " fill="#4B5878" transform="translate(365,129)"/>
<path d="M0 0 C0.66 0.33 1.32 0.66 2 1 C2 1.99 2 2.98 2 4 C1.01 4.495 1.01 4.495 0 5 C-1.31730648 6.97011235 -1.31730648 6.97011235 -2.5625 9.3125 C-2.99691406 10.09238281 -3.43132812 10.87226563 -3.87890625 11.67578125 C-4.90668091 13.80653359 -5.44063649 15.71838569 -6 18 C-7.5625 19.75 -7.5625 19.75 -9 21 C-8.34 21.33 -7.68 21.66 -7 22 C-7.165 22.61875 -7.33 23.2375 -7.5 23.875 C-8.07634644 25.96063386 -8.07634644 25.96063386 -8 28 C-8.99 27.67 -9.98 27.34 -11 27 C-12.4375 23.75 -12.4375 23.75 -13 20 C-11.38178451 17.36290808 -9.7698136 15.62177253 -7.375 13.6875 C-5.79404046 11.74723148 -5.57740053 10.48924859 -5.0625 8.0625 C-4.25776642 4.32771083 -3.04677451 2.43741961 0 0 Z " fill="#D6EAFC" transform="translate(344,139)"/>
<path d="M0 0 C24.75 0.495 24.75 0.495 50 1 C50 1.66 50 2.32 50 3 C48.35 3.33 46.7 3.66 45 4 C45 3.34 45 2.68 45 2 C40.39257135 3.21044132 40.39257135 3.21044132 36 5 C35.505 4.01 35.505 4.01 35 3 C34.31292969 3 33.62585938 3 32.91796875 3 C29.27864583 3 25.63932292 3 22 3 C19.66435067 3.31669821 17.3306218 3.64820803 15 4 C15 3.34 15 2.68 15 2 C10.05 2 5.1 2 0 2 C0 1.34 0 0.68 0 0 Z " fill="#417CAF" transform="translate(149,359)"/>
<path d="M0 0 C0 2.83967231 -0.40267181 5.23735711 -1 8 C-1.99 8.33 -2.98 8.66 -4 9 C-4.33 9.66 -4.66 10.32 -5 11 C-4.34 11 -3.68 11 -3 11 C-3.66 12.32 -4.32 13.64 -5 15 C-5.66 15 -6.32 15 -7 15 C-7.1546875 15.9590625 -7.1546875 15.9590625 -7.3125 16.9375 C-7.539375 17.618125 -7.76625 18.29875 -8 19 C-8.99 19.33 -9.98 19.66 -11 20 C-12.68538601 21.99665314 -12.68538601 21.99665314 -14 24 C-14.99 23.67 -15.98 23.34 -17 23 C-14.91881372 20.10261815 -12.83466861 17.20737707 -10.75 14.3125 C-9.87021484 13.08756836 -9.87021484 13.08756836 -8.97265625 11.83789062 C-6.0717926 7.81253489 -3.15414706 3.8333817 0 0 Z " fill="#030531" transform="translate(310,218)"/>
<path d="M0 0 C0.66 0.33 1.32 0.66 2 1 C-0.11818457 3.98406708 -2.24566937 6.9613786 -4.375 9.9375 C-4.97828125 10.78763672 -5.5815625 11.63777344 -6.203125 12.51367188 C-6.78320312 13.32255859 -7.36328125 14.13144531 -7.9609375 14.96484375 C-8.76217041 16.08814087 -8.76217041 16.08814087 -9.57958984 17.23413086 C-11 19 -11 19 -13 20 C-13 17.66666667 -13 15.33333333 -13 13 C-13.66 12.67 -14.32 12.34 -15 12 C-14.34 11.01 -13.68 10.02 -13 9 C-11.35 9.33 -9.7 9.66 -8 10 C-5.54420303 6.31435916 -5.54420303 6.31435916 -5 2 C-2.625 0.9375 -2.625 0.9375 0 0 Z " fill="#6693C9" transform="translate(310,215)"/>
<path d="M0 0 C0.14308594 0.61359375 0.28617187 1.2271875 0.43359375 1.859375 C1.0270096 4.10207767 1.90730275 5.96029847 3 8 C2.01 9.485 2.01 9.485 1 11 C0.34 11 -0.32 11 -1 11 C-0.67 12.32 -0.34 13.64 0 15 C-2.31 15 -4.62 15 -7 15 C-7.33 14.01 -7.66 13.02 -8 12 C-6.34765625 9.08203125 -6.34765625 9.08203125 -4.0625 5.8125 C-3.67642578 5.25369141 -3.29035156 4.69488281 -2.89257812 4.11914062 C-1.93757247 2.73968802 -0.96995907 1.36897944 0 0 Z " fill="#3476C0" transform="translate(271,241)"/>
<path d="M0 0 C0.33 0.66 0.66 1.32 1 2 C1.886875 1.835 2.77375 1.67 3.6875 1.5 C13.38058477 0.13202433 23.31068784 1.02233967 33 2 C29.26356456 4.49095696 27.27455265 4.25791662 22.8125 4.265625 C21.76412964 4.26849518 21.76412964 4.26849518 20.69458008 4.27142334 C19.21858357 4.27278283 17.74257502 4.26910282 16.26660156 4.26074219 C14.00819016 4.25003882 11.75057418 4.2606449 9.4921875 4.2734375 C8.05728991 4.27211586 6.62239282 4.26955338 5.1875 4.265625 C3.88167969 4.26336914 2.57585937 4.26111328 1.23046875 4.25878906 C-2 4 -2 4 -5 2 C-3.35 1.34 -1.7 0.68 0 0 Z " fill="#4987BE" transform="translate(210,371)"/>
<path d="M0 0 C0.99 0.33 1.98 0.66 3 1 C3 1.66 3 2.32 3 3 C-5.91 3 -14.82 3 -24 3 C-24 14.88 -24 26.76 -24 39 C-24.33 39 -24.66 39 -25 39 C-25 26.46 -25 13.92 -25 1 C-13.0625 1.0625 -13.0625 1.0625 -9.29321289 1.09008789 C-8.3211792 1.09258545 -7.34914551 1.09508301 -6.34765625 1.09765625 C-5.34742432 1.10289307 -4.34719238 1.10812988 -3.31665039 1.11352539 C-1.03792772 1.26181095 -1.03792772 1.26181095 0 0 Z " fill="#5590BE" transform="translate(182,136)"/>
<path d="M0 0 C2.475 0.99 2.475 0.99 5 2 C0.73796376 8.68364774 -3.96590729 14.87987207 -9 21 C-10.40318642 16.79044073 -8.88224523 14.90391604 -7 11 C-6.34 10.01 -5.68 9.02 -5 8 C-4.01 8.33 -3.02 8.66 -2 9 C-1.855625 7.700625 -1.71125 6.40125 -1.5625 5.0625 C-1.125 1.125 -1.125 1.125 0 0 Z " fill="#A0B9E1" transform="translate(323,192)"/>
<path d="M0 0 C0.66 0.33 1.32 0.66 2 1 C2.99 0.67 3.98 0.34 5 0 C4.35169582 3.61198046 2.84335606 6.15242372 0.8125 9.1875 C0.24144531 10.06792969 -0.32960938 10.94835937 -0.91796875 11.85546875 C-3.52623425 14.54203115 -5.33342774 14.73550893 -9 15 C-9.33 12.69 -9.66 10.38 -10 8 C-7 8 -4 8 -1 8 C-0.17361624 5.10765685 0 3.11257569 0 0 Z " fill="#D5E8FC" transform="translate(346,160)"/>
<path d="M0 0 C0.66 0 1.32 0 2 0 C2.1953125 1.98567708 2.390625 3.97135417 2.5859375 5.95703125 C2.92665391 8.29988142 2.92665391 8.29988142 5 11 C4.34 11 3.68 11 3 11 C2.8453125 12.6396875 2.8453125 12.6396875 2.6875 14.3125 C2.02692273 17.85559629 1.7972908 18.93243723 -1 21 C-1.68855104 18.3223015 -2.11537945 16.4615178 -1.4375 13.75 C-0.78172247 9.6279698 -1.94771322 5.99173251 -3 2 C-2.01 2 -1.02 2 0 2 C0 1.34 0 0.68 0 0 Z " fill="#232C51" transform="translate(318,158)"/>
<path d="M0 0 C0.33 0 0.66 0 1 0 C0.979375 1.093125 0.95875 2.18625 0.9375 3.3125 C0.81455548 6.94384191 0.81455548 6.94384191 2 10 C1.67 10.66 1.34 11.32 1 12 C2.65 12.33 4.3 12.66 6 13 C4.68 15.97 3.36 18.94 2 22 C-1.01953591 17.47069614 -1.13607004 14.28986419 -1.125 8.9375 C-1.12757813 7.68839844 -1.13015625 6.43929687 -1.1328125 5.15234375 C-1 2 -1 2 0 0 Z " fill="#7AAFD7" transform="translate(328,140)"/>
<path d="M0 0 C0.99 1.32 1.98 2.64 3 4 C1.8553125 4.8353125 1.8553125 4.8353125 0.6875 5.6875 C-1.99667243 7.99713674 -3.52240752 9.79854963 -5 13 C-4.67 13.99 -4.34 14.98 -4 16 C-6.31 16.33 -8.62 16.66 -11 17 C-9.52869627 12.6426774 -7.16919385 9.28065866 -4.375 5.6875 C-3.95476562 5.13771484 -3.53453125 4.58792969 -3.1015625 4.02148438 C-2.07279961 2.67707832 -1.0370991 1.33798587 0 0 Z " fill="#88A8D3" transform="translate(308,191)"/>
<path d="M0 0 C0.99 0.33 1.98 0.66 3 1 C0.71206762 4.99092412 -1.90394143 8.65880191 -4.6875 12.3125 C-5.31108398 13.13717773 -5.31108398 13.13717773 -5.94726562 13.97851562 C-6.96264158 15.32067925 -7.98101253 16.66057622 -9 18 C-10.32 17.67 -11.64 17.34 -13 17 C-12.34 16.67 -11.68 16.34 -11 16 C-10.67 15.01 -10.34 14.02 -10 13 C-10.66 12.67 -11.32 12.34 -12 12 C-10.02 12 -8.04 12 -6 12 C-5.938125 10.9275 -5.87625 9.855 -5.8125 8.75 C-4.85627872 4.33667104 -3.6591963 3.4394642 0 1 C0 0.67 0 0.34 0 0 Z " fill="#4879B8" transform="translate(293,236)"/>
<path d="M0 0 C0.99 0.66 1.98 1.32 3 2 C1.75748267 5.72755198 -0.20751579 7.27400351 -3 10 C-3.556875 10.763125 -4.11375 11.52625 -4.6875 12.3125 C-5.3371875 13.1478125 -5.3371875 13.1478125 -6 14 C-6.66 14 -7.32 14 -8 14 C-8 14.66 -8 15.32 -8 16 C-8.66 16 -9.32 16 -10 16 C-10.66 17.32 -11.32 18.64 -12 20 C-12.66 19.67 -13.32 19.34 -14 19 C-13.64695801 18.53102295 -13.29391602 18.0620459 -12.93017578 17.57885742 C-11.3276072 15.44903798 -9.72629122 13.31827996 -8.125 11.1875 C-7.56941406 10.44951172 -7.01382813 9.71152344 -6.44140625 8.95117188 C-5.90644531 8.23896484 -5.37148437 7.52675781 -4.8203125 6.79296875 C-4.32805176 6.1383667 -3.83579102 5.48376465 -3.32861328 4.80932617 C-2.17467505 3.23787519 -1.08145651 1.62218477 0 0 Z " fill="#5795C5" transform="translate(167,306)"/>
<path d="M0 0 C0.433125 1.3921875 0.433125 1.3921875 0.875 2.8125 C1.8875 6.09791667 1.8875 6.09791667 4 9 C3.75526163 12.79344475 1.72821615 14.53580477 -1 17 C-1.33 16.34 -1.66 15.68 -2 15 C-1.34 14.01 -0.68 13.02 0 12 C-0.66 11.34 -1.32 10.68 -2 10 C-2.4140625 7.8359375 -2.4140625 7.8359375 -2.625 5.375 C-2.69976562 4.55773437 -2.77453125 3.74046875 -2.8515625 2.8984375 C-2.90054687 2.27195313 -2.94953125 1.64546875 -3 1 C-1 0 -1 0 0 0 Z " fill="#343C61" transform="translate(322,156)"/>
<path d="M0 0 C1.17369141 -0.00386719 1.17369141 -0.00386719 2.37109375 -0.0078125 C4.5625 0.125 4.5625 0.125 7.5625 1.125 C7.5625 1.785 7.5625 2.445 7.5625 3.125 C2.6125 3.125 -2.3375 3.125 -7.4375 3.125 C-7.4375 3.785 -7.4375 4.445 -7.4375 5.125 C-11.8925 5.62 -11.8925 5.62 -16.4375 6.125 C-16.4375 5.465 -16.4375 4.805 -16.4375 4.125 C-15.73882812 3.92003906 -15.04015625 3.71507813 -14.3203125 3.50390625 C-13.41023438 3.23449219 -12.50015625 2.96507813 -11.5625 2.6875 C-10.65757812 2.42066406 -9.75265625 2.15382813 -8.8203125 1.87890625 C-2.85219555 -0.00936682 -2.85219555 -0.00936682 0 0 Z " fill="#445576" transform="translate(353.4375,119.875)"/>
<path d="M0 0 C0.99 0.33 1.98 0.66 3 1 C3 1.66 3 2.32 3 3 C3.66 3 4.32 3 5 3 C5 6.96 5 10.92 5 15 C2 11 2 11 2 8 C1.34 8 0.68 8 0 8 C0 7.01 0 6.02 0 5 C-0.66 5 -1.32 5 -2 5 C-1.34 3.35 -0.68 1.7 0 0 Z " fill="#96C5E8" transform="translate(334,136)"/>
<path d="M0 0 C0.33 0.99 0.66 1.98 1 3 C-0.4375 5.6875 -0.4375 5.6875 -2 8 C-1.34 8.33 -0.68 8.66 0 9 C0 9.99 0 10.98 0 12 C-1.32 11.67 -2.64 11.34 -4 11 C-4.5775 11.804375 -5.155 12.60875 -5.75 13.4375 C-8.08763854 16.09981056 -8.71368968 16.39935085 -12 17 C-8.19648587 11.17334006 -4.23982103 5.51778127 0 0 Z " fill="#040C3F" transform="translate(285,252)"/>
<path d="M0 0 C0.33 0 0.66 0 1 0 C1.06058594 0.845625 1.12117188 1.69125 1.18359375 2.5625 C1.63959033 8.7359922 2.15820112 14.86689384 3 21 C0.49317361 19.46355802 -0.80462745 18.58611765 -1.75 15.75 C-2.27503229 9.97464479 -2.12700213 5.45044295 0 0 Z " fill="#536D90" transform="translate(326,143)"/>
<path d="M0 0 C1.31457484 3.94372453 0.76330208 5.25298309 -1 9 C-3.17749989 11.21414052 -5.55857955 13.08832172 -8 15 C-8.66 15.66 -9.32 16.32 -10 17 C-10 13.71752569 -9.66923327 13.17433033 -7.8125 10.64453125 C-7.13574219 9.71157227 -7.13574219 9.71157227 -6.4453125 8.75976562 C-5.96835937 8.11716797 -5.49140625 7.47457031 -5 6.8125 C-4.52304687 6.15830078 -4.04609375 5.50410156 -3.5546875 4.83007812 C-2.37610725 3.21542318 -1.18886818 1.60709503 0 0 Z " fill="#04103F" transform="translate(268,196)"/>
<path d="M0 0 C2.56687367 3.8503105 1.83288724 5.58569763 1 10 C1.99 9.67 2.98 9.34 4 9 C3.43454163 12.95820859 2.19097652 15.6659053 0 19 C-1.68097192 12.77896717 -3.3258676 5.86917811 0 0 Z " fill="#3C476A" transform="translate(380,139)"/>
<path d="M0 0 C0 0.33 0 0.66 0 1 C-0.58007812 1.15855469 -1.16015625 1.31710938 -1.7578125 1.48046875 C-7.85373729 3.30119876 -12.83526889 5.37188369 -16.25390625 11.1015625 C-17.2393948 13.04506953 -18.15324761 14.99269874 -19 17 C-20.26604567 13.201863 -19.59396843 11.61817063 -18.15625 8.00390625 C-14.19930641 1.14609524 -7.34450435 -0.13857555 0 0 Z " fill="#52668A" transform="translate(347,125)"/>
<path d="M0 0 C2 1 2 1 3 3 C2.06553465 5.03144641 1.06775224 7.03533587 0 9 C-0.33 8.01 -0.66 7.02 -1 6 C-1.66 6 -2.32 6 -3 6 C-3.66 7.98 -4.32 9.96 -5 12 C-5.66 12 -6.32 12 -7 12 C-7 12.66 -7 13.32 -7 14 C-7.99 13.67 -8.98 13.34 -10 13 C-5.05 6.565 -5.05 6.565 0 0 Z " fill="#141E45" transform="translate(335,184)"/>
<path d="M0 0 C0.99 0.33 1.98 0.66 3 1 C1.74131097 2.84169226 0.46766474 4.67317031 -0.8125 6.5 C-1.52019531 7.5209375 -2.22789062 8.541875 -2.95703125 9.59375 C-3.63121094 10.3878125 -4.30539062 11.181875 -5 12 C-5.99 12 -6.98 12 -8 12 C-8.66 10.68 -9.32 9.36 -10 8 C-7.92446352 7.4465236 -6.15634036 7 -4 7 C-4 6.01 -4 5.02 -4 4 C-2 1.8125 -2 1.8125 0 0 Z " fill="#C1D6F2" transform="translate(339,174)"/>
<path d="M0 0 C0.33 0 0.66 0 1 0 C1.6604455 6.34027681 0.83433254 10.24850119 -2.7109375 15.56640625 C-3.13632812 16.03949219 -3.56171875 16.51257813 -4 17 C-4.66 17 -5.32 17 -6 17 C-6.33 16.01 -6.66 15.02 -7 14 C-6.319375 13.38125 -6.319375 13.38125 -5.625 12.75 C-3.12269194 10.05520671 -2 8.09800503 -2 4.375 C-2 2 -2 2 0 0 Z " fill="#2F385C" transform="translate(385,145)"/>
<path d="M0 0 C0.99 0.33 1.98 0.66 3 1 C2.67 1.66 2.34 2.32 2 3 C2.66 3.66 3.32 4.32 4 5 C4 6.32 4 7.64 4 9 C1.625 9.625 1.625 9.625 -1 10 C-1.66 9.34 -2.32 8.68 -3 8 C-3.66 7.67 -4.32 7.34 -5 7 C-3.35 4.69 -1.7 2.38 0 0 Z " fill="#81B9E3" transform="translate(351,162)"/>
<path d="M0 0 C0.66 0.33 1.32 0.66 2 1 C1.67 1.66 1.34 2.32 1 3 C1.928125 3.5878125 1.928125 3.5878125 2.875 4.1875 C5.401317 6.3422998 6.28865423 7.75942484 7 11 C5.625 13.3125 5.625 13.3125 4 15 C2.875 11.25 2.875 11.25 4 9 C3.34 9 2.68 9 2 9 C1.67 8.34 1.34 7.68 1 7 C-0.32 7 -1.64 7 -3 7 C-1.125 1.125 -1.125 1.125 0 0 Z " fill="#A6CBEA" transform="translate(335,130)"/>
<path d="M0 0 C2.1640625 0.0234375 2.1640625 0.0234375 4.625 0.375 C5.85089844 0.54128906 5.85089844 0.54128906 7.1015625 0.7109375 C7.72804688 0.80632813 8.35453125 0.90171875 9 1 C9 1.66 9 2.32 9 3 C6.36 3 3.72 3 1 3 C1 5.64 1 8.28 1 11 C0.67 10.34 0.34 9.68 0 9 C-0.66 9 -1.32 9 -2 9 C-2.125 5.625 -2.125 5.625 -2 2 C-1.34 1.34 -0.68 0.68 0 0 Z " fill="#FEFEFE" transform="translate(61,59)"/>
<path d="M0 0 C0.99 0.33 1.98 0.66 3 1 C3.05437607 2.58294782 3.09296271 4.16644256 3.125 5.75 C3.14820313 6.63171875 3.17140625 7.5134375 3.1953125 8.421875 C2.99139502 11.1135858 2.36551721 12.69904974 1 15 C0.01 15 -0.98 15 -2 15 C-1.34 10.05 -0.68 5.1 0 0 Z " fill="#576889" transform="translate(375,146)"/>
<path d="M0 0 C1.32 0.33 2.64 0.66 4 1 C3.67 1.99 3.34 2.98 3 4 C3.639375 4.103125 4.27875 4.20625 4.9375 4.3125 C5.618125 4.539375 6.29875 4.76625 7 5 C8 8 8 8 7 11 C7.66 11.33 8.32 11.66 9 12 C8.67 12.99 8.34 13.98 8 15 C7.96079185 16.99961564 7.95556653 19.00049364 8 21 C7.34 21 6.68 21 6 21 C5.67 15.72 5.34 10.44 5 5 C2.69 5 0.38 5 -2 5 C-1.34 4.34 -0.68 3.68 0 3 C0 2.01 0 1.02 0 0 Z " fill="#094EA2" transform="translate(337,318)"/>
<path d="M0 0 C1 3 1 3 0 6 C-0.639375 6.61875 -1.27875 7.2375 -1.9375 7.875 C-4.15399772 9.88663535 -4.15399772 9.88663535 -5.0625 12.6875 C-5.371875 13.450625 -5.68125 14.21375 -6 15 C-6.99 15.33 -7.98 15.66 -9 16 C-9 16.66 -9 17.32 -9 18 C-10.32 18.33 -11.64 18.66 -13 19 C-8.77319661 12.59012233 -4.42670836 6.27335297 0 0 Z " fill="#5793C1" transform="translate(182,285)"/>
<path d="M0 0 C0.66 0.33 1.32 0.66 2 1 C2.19785783 4.56144099 2.11103658 7.04454879 0 10 C-2 10.6875 -2 10.6875 -4 11 C-4.99 11.495 -4.99 11.495 -6 12 C-5.54300722 6.97307937 -3.00758252 3.85103739 0 0 Z " fill="#2762AD" transform="translate(262,254)"/>
<path d="M0 0 C0.66 0.99 1.32 1.98 2 3 C1.34 3 0.68 3 0 3 C0 3.66 0 4.32 0 5 C-0.66 5 -1.32 5 -2 5 C-2.226875 6.0725 -2.45375 7.145 -2.6875 8.25 C-4.13026545 12.37218701 -5.41910075 13.64414523 -9 16 C-9.66 15.67 -10.32 15.34 -11 15 C-7.37 10.05 -3.74 5.1 0 0 Z " fill="#05113F" transform="translate(170,331)"/>
<path d="M0 0 C0.66 0.66 1.32 1.32 2 2 C-2.95 8.93 -2.95 8.93 -8 16 C-8.66 15.67 -9.32 15.34 -10 15 C-9.67 13.02 -9.34 11.04 -9 9 C-8.34 9 -7.68 9 -7 9 C-6.67 8.34 -6.34 7.68 -6 7 C-4.33333333 5.33333333 -2.66666667 3.66666667 -1 2 C-0.67 1.34 -0.34 0.68 0 0 Z " fill="#030C3A" transform="translate(188,274)"/>
<path d="M0 0 C0.99 0.33 1.98 0.66 3 1 C1.59535704 2.82183392 0.1758376 4.63220561 -1.25 6.4375 C-2.43335938 7.95150391 -2.43335938 7.95150391 -3.640625 9.49609375 C-5.90655283 11.90082842 -6.78577367 12.71248893 -10 13 C-10 12.01 -10 11.02 -10 10 C-8.34211215 8.65576661 -6.67423683 7.32381517 -5 6 C-3.96642853 4.35394174 -2.95939668 2.69036558 -2 1 C-1.34 0.67 -0.68 0.34 0 0 Z " fill="#326DB0" transform="translate(281,254)"/>
<path d="M0 0 C0.66 0.33 1.32 0.66 2 1 C-2.625 5 -2.625 5 -6 5 C-6.33 5.99 -6.66 6.98 -7 8 C-11.17006403 10.45297884 -14.3709597 9.90765496 -19 9 C-17 7 -17 7 -14.234375 6.5703125 C-10.65320211 5.93884965 -8.36270547 4.72370629 -5.25 2.875 C-2.390625 1.1796875 -2.390625 1.1796875 0 0 Z " fill="#3C496C" transform="translate(368,172)"/>
<path d="M0 0 C0.33 0.66 0.66 1.32 1 2 C0.21625 3.051875 -0.5675 4.10375 -1.375 5.1875 C-2.94585432 7.36826702 -4.03686355 9.09676681 -5 11.625 C-6.36861299 14.87545586 -8.33881223 16.72825434 -11 19 C-11.99 19 -12.98 19 -14 19 C-13.50628906 18.30132812 -13.01257813 17.60265625 -12.50390625 16.8828125 C-11.86324219 15.97273438 -11.22257813 15.06265625 -10.5625 14.125 C-9.92441406 13.22007812 -9.28632813 12.31515625 -8.62890625 11.3828125 C-7.00481862 9.12261419 -7.00481862 9.12261419 -6 7 C-5.34 7 -4.68 7 -4 7 C-3.71125 6.401875 -3.4225 5.80375 -3.125 5.1875 C-2 3 -2 3 0 0 Z " fill="#010F46" transform="translate(263,282)"/>
<path d="M0 0 C0.66 0 1.32 0 2 0 C2.99 3.63 3.98 7.26 5 11 C5.66 11 6.32 11 7 11 C7.625 13.375 7.625 13.375 8 16 C7.34 16.66 6.68 17.32 6 18 C4.6459068 16.01399663 3.31542376 14.01182457 2 12 C1.38125 11.071875 1.38125 11.071875 0.75 10.125 C-0.43952122 6.75468988 -0.11857253 3.55717602 0 0 Z " fill="#424E71" transform="translate(320,149)"/>
<path d="M0 0 C0.99 0.33 1.98 0.66 3 1 C3.99 0.67 4.98 0.34 6 0 C4.22054913 4.04420651 1.60470327 7.46078487 -1 11 C-1.66 10.67 -2.32 10.34 -3 10 C-2.39009109 6.44219804 -1.4216319 3.3171411 0 0 Z " fill="#5496C7" transform="translate(253,208)"/>
<path d="M0 0 C0.66 0 1.32 0 2 0 C2.125 5.75 2.125 5.75 1 8 C1 9.32 1 10.64 1 12 C-0.98 12.99 -0.98 12.99 -3 14 C-3.29341888 8.32723489 -3.00559652 5.00932754 0 0 Z " fill="#232B51" transform="translate(385,154)"/>
<path d="M0 0 C3.53677664 -0.32152515 5.3962104 -0.4131192 8.375 1.625 C10.4131192 4.6037896 10.32152515 6.46322336 10 10 C9.01 10.495 9.01 10.495 8 11 C7.67386719 10.45730469 7.34773438 9.91460937 7.01171875 9.35546875 C6.57472656 8.64003906 6.13773437 7.92460937 5.6875 7.1875 C5.25824219 6.47980469 4.82898438 5.77210938 4.38671875 5.04296875 C3.07493533 3.11039769 1.70596155 1.58589388 0 0 Z " fill="#515F7D" transform="translate(365,129)"/>
<path d="M0 0 C1.32 0.66 2.64 1.32 4 2 C2.93249206 3.51130338 1.84539718 5.00878703 0.75 6.5 C-0.15492188 7.75296875 -0.15492188 7.75296875 -1.078125 9.03125 C-1.71234375 9.6809375 -2.3465625 10.330625 -3 11 C-4.32 11 -5.64 11 -7 11 C-7 10.34 -7 9.68 -7 9 C-6.34 9 -5.68 9 -5 9 C-5 8.34 -5 7.68 -5 7 C-4.34 7 -3.68 7 -3 7 C-2.67 6.01 -2.34 5.02 -2 4 C-1.34870203 2.65909241 -0.68486725 1.32407669 0 0 Z " fill="#104790" transform="translate(246,299)"/>
<path d="M0 0 C1 2 1 2 0.1875 4.5625 C-1 7 -1 7 -3 8 C-3 8.66 -3 9.32 -3 10 C-2.01 10 -1.02 10 0 10 C0 10.99 0 11.98 0 13 C-2.31 13.33 -4.62 13.66 -7 14 C-6.54275236 9.08458791 -5.26548237 6.66129842 -2 3 C-1.34 2.01 -0.68 1.02 0 0 Z " fill="#5A87BE" transform="translate(288,218)"/>
<path d="M0 0 C0 0.99 0 1.98 0 3 C-1.43344 3.53190541 -2.87195367 4.05015258 -4.3125 4.5625 C-5.51326172 4.99755859 -5.51326172 4.99755859 -6.73828125 5.44140625 C-9 6 -9 6 -12 5 C-7.90746174 1.10234452 -5.90669543 -0.70317803 0 0 Z " fill="#394567" transform="translate(347,178)"/>
<path d="M0 0 C4.92307692 4.18461538 4.92307692 4.18461538 5.3125 8.3125 C5.209375 9.199375 5.10625 10.08625 5 11 C3.35 11 1.7 11 0 11 C0 10.34 0 9.68 0 9 C0.66 9 1.32 9 2 9 C2 8.01 2 7.02 2 6 C1.01 6 0.02 6 -1 6 C-0.67 4.02 -0.34 2.04 0 0 Z " fill="#D4E5F8" transform="translate(368,133)"/>
<path d="M0 0 C0.33 1.32 0.66 2.64 1 4 C0.34 4 -0.32 4 -1 4 C-1.18175781 4.63808594 -1.36351562 5.27617187 -1.55078125 5.93359375 C-1.80214844 6.75988281 -2.05351562 7.58617187 -2.3125 8.4375 C-2.55613281 9.26121094 -2.79976562 10.08492187 -3.05078125 10.93359375 C-3.36402344 11.61550781 -3.67726562 12.29742187 -4 13 C-4.99 13.33 -5.98 13.66 -7 14 C-7.66 14.99 -8.32 15.98 -9 17 C-9.33 16.01 -9.66 15.02 -10 14 C-8.92578125 12.16796875 -8.92578125 12.16796875 -7.3125 10.1875 C-4.69017408 6.88055752 -2.29937093 3.53749373 0 0 Z " fill="#5690C0" transform="translate(227,223)"/>
<path d="M0 0 C0.33 1.32 0.66 2.64 1 4 C3.64 4.66 6.28 5.32 9 6 C9 6.33 9 6.66 9 7 C4.71 7 0.42 7 -4 7 C-2 2 -2 2 0 0 Z " fill="#050F3D" transform="translate(154,353)"/>
<path d="M0 0 C1.32 0.33 2.64 0.66 4 1 C-0.95 7.435 -0.95 7.435 -6 14 C-6.33 13.01 -6.66 12.02 -7 11 C-6.566875 10.649375 -6.13375 10.29875 -5.6875 9.9375 C-3.35761173 7.2624431 -2.33019073 4.2650136 -1 1 C-0.67 0.67 -0.34 0.34 0 0 Z " fill="#5291C3" transform="translate(231,242)"/>
<path d="M0 0 C0 0.99 0 1.98 0 3 C-3.76737643 5.96823597 -7.29761275 6.53898164 -12 7 C-10.4375 4.5625 -10.4375 4.5625 -8 2 C-4.3125 1.25 -4.3125 1.25 -1 1 C-0.67 0.67 -0.34 0.34 0 0 Z " fill="#232A50" transform="translate(337,116)"/>
<path d="M0 0 C0.66 1.32 1.32 2.64 2 4 C1.01 4.495 1.01 4.495 0 5 C-0.33 5.99 -0.66 6.98 -1 8 C-1.99 8.66 -2.98 9.32 -4 10 C-4.99 9.67 -5.98 9.34 -7 9 C-4.69 6.03 -2.38 3.06 0 0 Z " fill="#05113E" transform="translate(213,272)"/>
<path d="M0 0 C1.38294718 0.01329757 2.76582404 0.03715018 4.1484375 0.0703125 C4.85484375 0.07933594 5.56125 0.08835938 6.2890625 0.09765625 C8.03399848 0.12123647 9.77876045 0.15710789 11.5234375 0.1953125 C9.5234375 3.1953125 9.5234375 3.1953125 6.80859375 3.77734375 C5.74511719 3.85339844 4.68164062 3.92945313 3.5859375 4.0078125 C1.99458984 4.14123047 1.99458984 4.14123047 0.37109375 4.27734375 C-2.4765625 4.1953125 -2.4765625 4.1953125 -5.4765625 2.1953125 C-3.4765625 0.1953125 -3.4765625 0.1953125 0 0 Z " fill="#556B8F" transform="translate(346.4765625,172.8046875)"/>
<path d="M0 0 C0.99 0 1.98 0 3 0 C3.33 0.99 3.66 1.98 4 3 C2.56640625 5.48046875 2.56640625 5.48046875 0.5625 8.1875 C-0.09621094 9.08855469 -0.75492188 9.98960937 -1.43359375 10.91796875 C-2.20896484 11.94857422 -2.20896484 11.94857422 -3 13 C-3.66 12.01 -4.32 11.02 -5 10 C-4.01 10 -3.02 10 -2 10 C-2 9.01 -2 8.02 -2 7 C-1.34 7 -0.68 7 0 7 C-0.185625 6.030625 -0.37125 5.06125 -0.5625 4.0625 C-0.706875 3.051875 -0.85125 2.04125 -1 1 C-0.67 0.67 -0.34 0.34 0 0 Z " fill="#010A3D" transform="translate(219,305)"/>
<path d="M0 0 C1.32 0 2.64 0 4 0 C2.22054913 4.04420651 -0.39529673 7.46078487 -3 11 C-4 8 -4 8 -3.22265625 5.95703125 C-2.83980469 5.24933594 -2.45695313 4.54164063 -2.0625 3.8125 C-1.68222656 3.09707031 -1.30195313 2.38164062 -0.91015625 1.64453125 C-0.60980469 1.10183594 -0.30945313 0.55914062 0 0 Z " fill="#010A3F" transform="translate(238,281)"/>
<path d="M0 0 C1.04187157 3.12561472 1.23843794 4.04680182 0 7 C-1.33333333 7.66666667 -2.66666667 8.33333333 -4 9 C-4.144375 9.66 -4.28875 10.32 -4.4375 11 C-4.623125 11.66 -4.80875 12.32 -5 13 C-7.53515625 14.125 -7.53515625 14.125 -10 15 C-8.89789095 13.24870343 -7.79322568 11.49901536 -6.6875 9.75 C-6.07261719 8.77546875 -5.45773437 7.8009375 -4.82421875 6.796875 C-3.29524241 4.45266287 -1.71179023 2.21215968 0 0 Z " fill="#071544" transform="translate(283,175)"/>
<path d="M0 0 C1.57156655 3.1431331 0.11705576 5.365464 -0.9375 8.625 C-1.31777344 9.81351563 -1.69804687 11.00203125 -2.08984375 12.2265625 C-2.39019531 13.14179688 -2.69054687 14.05703125 -3 15 C-3.66 15 -4.32 15 -5 15 C-4.7242265 8.7950962 -3.89359206 4.89839001 0 0 Z " fill="#495B7E" transform="translate(328,134)"/>
<path d="M0 0 C0.66 0.33 1.32 0.66 2 1 C1.8125 3.8125 1.8125 3.8125 1 7 C-1.4375 8.9375 -1.4375 8.9375 -4 10 C-4.66 9.67 -5.32 9.34 -6 9 C-4.02 6.03 -2.04 3.06 0 0 Z " fill="#5392C4" transform="translate(143,339)"/>
<path d="M0 0 C0.66 0.33 1.32 0.66 2 1 C0.02 3.97 -1.96 6.94 -4 10 C-6 7 -6 7 -5.625 3.8125 C-5.41875 2.884375 -5.2125 1.95625 -5 1 C-4.01 1 -3.02 1 -2 1 C-1.34 0.67 -0.68 0.34 0 0 Z " fill="#05113D" transform="translate(176,291)"/>
<path d="M0 0 C0.33 0.66 0.66 1.32 1 2 C0.22265625 3.9453125 0.22265625 3.9453125 -0.9375 6.125 C-1.31777344 6.84945312 -1.69804687 7.57390625 -2.08984375 8.3203125 C-2.54037109 9.15175781 -2.54037109 9.15175781 -3 10 C-3.66 10 -4.32 10 -5 10 C-5 10.66 -5 11.32 -5 12 C-6.5 13.625 -6.5 13.625 -8 15 C-8.66 14.67 -9.32 14.34 -10 14 C-6.7 9.38 -3.4 4.76 0 0 Z " fill="#071745" transform="translate(246,226)"/>
<path d="M0 0 C0 2.83967231 -0.40267181 5.23735711 -1 8 C-1.99 8.33 -2.98 8.66 -4 9 C-4.33 9.99 -4.66 10.98 -5 12 C-5.66 12 -6.32 12 -7 12 C-7 12.66 -7 13.32 -7 14 C-7.99 13.67 -8.98 13.34 -10 13 C-5.05 6.565 -5.05 6.565 0 0 Z " fill="#091442" transform="translate(310,218)"/>
<path d="M0 0 C0.33 0 0.66 0 1 0 C1.33 1.98 1.66 3.96 2 6 C1.195625 6.268125 0.39125 6.53625 -0.4375 6.8125 C-1.283125 7.204375 -2.12875 7.59625 -3 8 C-3.33 8.99 -3.66 9.98 -4 11 C-4.99 11 -5.98 11 -7 11 C-5.23867546 6.99698968 -2.73867517 3.3971023 0 0 Z " fill="#5C92C4" transform="translate(125,364)"/>
<path d="M0 0 C3.40667322 0.44824648 5.07914607 1.05276405 8 3 C7.67 4.32 7.34 5.64 7 7 C5.68 6.34 4.36 5.68 3 5 C3 4.01 3 3.02 3 2 C1.68 1.67 0.36 1.34 -1 1 C-0.67 0.67 -0.34 0.34 0 0 Z " fill="#414E70" transform="translate(362,123)"/>
<path d="M0 0 C0.33 0.99 0.66 1.98 1 3 C0.03542166 4.35917857 -0.96854629 5.69084721 -2 7 C-2.70514846 9.14733927 -2.70514846 9.14733927 -3 11 C-4.65 11.33 -6.3 11.66 -8 12 C-6.85573734 10.186508 -5.70954608 8.37423275 -4.5625 6.5625 C-3.60537109 5.04849609 -3.60537109 5.04849609 -2.62890625 3.50390625 C-1 1 -1 1 0 0 Z " fill="#04113F" transform="translate(225,255)"/>
<path d="M0 0 C0.66 0.33 1.32 0.66 2 1 C-0.97 4.96 -0.97 4.96 -4 9 C-5 5 -5 5 -5 2 C-2.625 0.9375 -2.625 0.9375 0 0 Z " fill="#759CCB" transform="translate(310,215)"/>
<path d="M0 0 C1.65 1.32 3.3 2.64 5 4 C1.49223216 5.60355101 -1.14354879 6.22036864 -5 6 C-4.67 5.01 -4.34 4.02 -4 3 C-1.9375 2.3125 -1.9375 2.3125 0 2 C0 1.34 0 0.68 0 0 Z " fill="#2B3358" transform="translate(346,113)"/>
<path d="M0 0 C0.66 0.33 1.32 0.66 2 1 C0.6062718 5.43458973 -1.60582235 7.87378374 -5 11 C-5.33 9.68 -5.66 8.36 -6 7 C-5.38125 6.5875 -4.7625 6.175 -4.125 5.75 C-1.93231719 3.94426121 -1.07211583 2.5909466 0 0 Z " fill="#020F3C" transform="translate(161,310)"/>
<path d="M0 0 C0.66 0.33 1.32 0.66 2 1 C0.85821872 2.66944521 -0.28852905 4.3354948 -1.4375 6 C-2.07558594 6.928125 -2.71367187 7.85625 -3.37109375 8.8125 C-3.90863281 9.534375 -4.44617188 10.25625 -5 11 C-5.33 11 -5.66 11 -6 11 C-6.20086443 7.28400809 -6.1519437 6.22791555 -4 3 C-3.34 3 -2.68 3 -2 3 C-2 2.34 -2 1.68 -2 1 C-1.34 0.67 -0.68 0.34 0 0 Z " fill="#05133E" transform="translate(225,224)"/>
<path d="M0 0 C1.5625 1.25 1.5625 1.25 3 3 C2.90311287 6.00350106 1.98152289 7.02015684 -0.0625 9.25 C-0.701875 9.8275 -1.34125 10.405 -2 11 C-2.33 10.34 -2.66 9.68 -3 9 C-2.505 8.195625 -2.01 7.39125 -1.5 6.5625 C-1.005 5.716875 -0.51 4.87125 0 4 C-0.33 3.01 -0.66 2.02 -1 1 C-0.67 0.67 -0.34 0.34 0 0 Z " fill="#3A4668" transform="translate(323,162)"/>
<path d="M0 0 C1.43739513 -0.02712066 2.87493863 -0.04645067 4.3125 -0.0625 C5.51326172 -0.07990234 5.51326172 -0.07990234 6.73828125 -0.09765625 C9 0 9 0 12 1 C12 1.66 12 2.32 12 3 C3.42857143 3.14285714 3.42857143 3.14285714 0 2 C0 1.34 0 0.68 0 0 Z " fill="#404D70" transform="translate(349,120)"/>
<path d="M0 0 C0.99 0.33 1.98 0.66 3 1 C2.38545304 4.99455527 0.29353263 7.74466336 -2 11 C-3.13643966 7.59068103 -2.86747764 6.99664544 -1.5625 3.8125 C-1.13130859 2.73935547 -1.13130859 2.73935547 -0.69140625 1.64453125 C-0.46324219 1.10183594 -0.23507813 0.55914062 0 0 Z " fill="#5493C6" transform="translate(154,346)"/>
<path d="M0 0 C0.66 0 1.32 0 2 0 C1.67 1.32 1.34 2.64 1 4 C0.01 4 -0.98 4 -2 4 C-2.33 4.99 -2.66 5.98 -3 7 C-3.99 6.34 -4.98 5.68 -6 5 C-5.34 5 -4.68 5 -4 5 C-3.67 4.01 -3.34 3.02 -3 2 C-2.01 2 -1.02 2 0 2 C0 1.34 0 0.68 0 0 Z M-8 6 C-7.01 6.495 -7.01 6.495 -6 7 C-6.99 8.485 -6.99 8.485 -8 10 C-8 8.68 -8 7.36 -8 6 Z " fill="#2F375B" transform="translate(325,129)"/>
<path d="M0 0 C0.66 0.66 1.32 1.32 2 2 C1.76051177 6.94942337 1.54583971 10.29999334 -2 14 C-2.66 13.67 -3.32 13.34 -4 13 C-3.525625 12.34 -3.05125 11.68 -2.5625 11 C-0.58682146 7.2066972 -0.35972537 4.24475932 0 0 Z " fill="#434F72" transform="translate(378,149)"/>
<path d="M0 0 C0.33 0.66 0.66 1.32 1 2 C0.67 2.66 0.34 3.32 0 4 C3.96 4 7.92 4 12 4 C12 4.33 12 4.66 12 5 C7.05 5 2.1 5 -3 5 C-2.67 3.68 -2.34 2.36 -2 1 C-1.34 0.67 -0.68 0.34 0 0 Z " fill="#114891" transform="translate(215,319)"/>
<path d="M0 0 C0.99 0.33 1.98 0.66 3 1 C1.19587357 4.26460973 0.16605307 5.88929795 -3 8 C-3 7.34 -3 6.68 -3 6 C-3.66 5.67 -4.32 5.34 -5 5 C-4.175 4.360625 -3.35 3.72125 -2.5 3.0625 C-1.675 2.381875 -0.85 1.70125 0 1 C0 0.67 0 0.34 0 0 Z " fill="#5484C0" transform="translate(293,236)"/>
<path d="M0 0 C0.33 1.32 0.66 2.64 1 4 C-0.21484375 5.921875 -0.21484375 5.921875 -1.9375 7.75 C-2.50339844 8.36359375 -3.06929687 8.9771875 -3.65234375 9.609375 C-4.31943359 10.29773438 -4.31943359 10.29773438 -5 11 C-5.66 10.67 -6.32 10.34 -7 10 C-3.535 5.05 -3.535 5.05 0 0 Z " fill="#5590C0" transform="translate(239,207)"/>
<path d="M0 0 C0.66 0 1.32 0 2 0 C2.33 0.99 2.66 1.98 3 3 C1.59554165 5.2636564 -0.1967913 7.0208685 -2 9 C-3 6 -3 6 -1.5625 2.8125 C-1.046875 1.884375 -0.53125 0.95625 0 0 Z " fill="#85A7D2" transform="translate(316,204)"/>
<path d="M0 0 C0.66 0.66 1.32 1.32 2 2 C1.02471263 3.33617352 0.04466681 4.6688751 -0.9375 6 C-1.48277344 6.7425 -2.02804687 7.485 -2.58984375 8.25 C-3.05519531 8.8275 -3.52054687 9.405 -4 10 C-4.33 10 -4.66 10 -5 10 C-5.36625971 5.48279689 -5.36625971 5.48279689 -3.625 3.1875 C-2 2 -2 2 0 2 C0 1.34 0 0.68 0 0 Z " fill="#265DA1" transform="translate(273,265)"/>
<path d="M0 0 C1.98 1.65 3.96 3.3 6 5 C2.94736336 5.98120464 1.05263664 5.98120464 -2 5 C-1.34 3.35 -0.68 1.7 0 0 Z " fill="#2E6CB2" transform="translate(265,250)"/>
<path d="M0 0 C0.66 0.33 1.32 0.66 2 1 C1.625 3.9375 1.625 3.9375 1 7 C0.01 7.495 0.01 7.495 -1 8 C-1.66 5.69 -2.32 3.38 -3 1 C-2.01 0.67 -1.02 0.34 0 0 Z " fill="#77A7CE" transform="translate(330,154)"/>
<path d="M0 0 C1 4 1 4 1 7 C-0.98 7.33 -2.96 7.66 -5 8 C-3.35 5.36 -1.7 2.72 0 0 Z " fill="#071546" transform="translate(195,296)"/>
<path d="M0 0 C1.32 0.33 2.64 0.66 4 1 C1.525 4.465 1.525 4.465 -1 8 C-1.66 7.01 -2.32 6.02 -3 5 C-2.01 3.35 -1.02 1.7 0 0 Z " fill="#05113F" transform="translate(247,191)"/>
<path d="M0 0 C0.66 0.33 1.32 0.66 2 1 C0.75 3.9375 0.75 3.9375 -1 7 C-3.1875 7.875 -3.1875 7.875 -5 8 C-3.62845496 5.04590299 -2.01136276 2.55991624 0 0 Z " fill="#CBDCF7" transform="translate(329,163)"/>
<path d="M0 0 C0.75 1.625 0.75 1.625 1 4 C-0.9375 7.25 -0.9375 7.25 -3 10 C-3.99928333 7.301935 -4.03624754 6.11989571 -3.1875 3.3125 C-2 1 -2 1 0 0 Z " fill="#374063" transform="translate(383,148)"/>
<path d="M0 0 C2.31 0 4.62 0 7 0 C6.67 0.99 6.34 1.98 6 3 C3.4375 4.1875 3.4375 4.1875 1 5 C0.67 3.35 0.34 1.7 0 0 Z " fill="#145CAA" transform="translate(307,361)"/>
<path d="M0 0 C0.99 0.33 1.98 0.66 3 1 C-1.14285714 7.42857143 -1.14285714 7.42857143 -4 10 C-4.33 9.34 -4.66 8.68 -5 8 C-4.360625 7.236875 -3.72125 6.47375 -3.0625 5.6875 C-0.85767219 3.11753287 -0.85767219 3.11753287 0 0 Z " fill="#08133F" transform="translate(301,196)"/>
<path d="M0 0 C0.99 0.33 1.98 0.66 3 1 C2.34 2.65 1.68 4.3 1 6 C-0.65 6 -2.3 6 -4 6 C-2.68 4.02 -1.36 2.04 0 0 Z " fill="#8EBBDF" transform="translate(351,162)"/>
<path d="M0 0 C0.33 0 0.66 0 1 0 C0.67 2.31 0.34 4.62 0 7 C-1.98 7.66 -3.96 8.32 -6 9 C-5.02501855 7.4972763 -4.04490611 5.99788037 -3.0625 4.5 C-2.51722656 3.6646875 -1.97195313 2.829375 -1.41015625 1.96875 C-0.94480469 1.3190625 -0.47945313 0.669375 0 0 Z " fill="#081C47" transform="translate(310,125)"/>
<path d="M0 0 C1 2 1 2 0.0625 5.125 C-0.288125 6.07375 -0.63875 7.0225 -1 8 C-2.32 8 -3.64 8 -5 8 C-3.62845496 5.04590299 -2.01136276 2.55991624 0 0 Z " fill="#030D43" transform="translate(269,274)"/>
<path d="M0 0 C0 3.28176588 -0.47835901 5.10888212 -2 8 C-3.32 8.33 -4.64 8.66 -6 9 C-4.02 6.03 -2.04 3.06 0 0 Z " fill="#040F42" transform="translate(299,233)"/>
<path d="M0 0 C1.5625 1.0625 1.5625 1.0625 3 3 C2.6875 6.6875 2.6875 6.6875 2 10 C1.01 9.34 0.02 8.68 -1 8 C-1.25 4.4375 -1.25 4.4375 -1 1 C-0.67 0.67 -0.34 0.34 0 0 Z " fill="#435073" transform="translate(377,138)"/>
<path d="M0 0 C0.99 0.66 1.98 1.32 3 2 C2.67 2.99 2.34 3.98 2 5 C0.02 5.33 -1.96 5.66 -4 6 C-2.68 4.02 -1.36 2.04 0 0 Z " fill="#518EC0" transform="translate(167,306)"/>
<path d="M0 0 C0.66 0.66 1.32 1.32 2 2 C1.34 3.65 0.68 5.3 0 7 C-1.32 7 -2.64 7 -4 7 C-4 6.34 -4 5.68 -4 5 C-3.34 5 -2.68 5 -2 5 C-2 4.34 -2 3.68 -2 3 C-1.34 3 -0.68 3 0 3 C0 2.01 0 1.02 0 0 Z " fill="#0B4FA0" transform="translate(243,303)"/>
<path d="M0 0 C0.66 0.33 1.32 0.66 2 1 C2.99 0.67 3.98 0.34 5 0 C4.6875 1.875 4.6875 1.875 4 4 C3.01 4.66 2.02 5.32 1 6 C-0.0625 4.125 -0.0625 4.125 -1 2 C-0.67 1.34 -0.34 0.68 0 0 Z " fill="#91B0DB" transform="translate(317,200)"/>
<path d="M0 0 C1.65 0 3.3 0 5 0 C3.36587557 1.70840281 2.13093906 2.93453047 0 4 C-2.3329866 4.04022391 -4.66706666 4.04320247 -7 4 C-7 3.67 -7 3.34 -7 3 C-5.5459375 2.814375 -5.5459375 2.814375 -4.0625 2.625 C-2.5465625 2.315625 -2.5465625 2.315625 -1 2 C-0.67 1.34 -0.34 0.68 0 0 Z " fill="#8DB5D8" transform="translate(360,169)"/>
<path d="M0 0 C0.99 0.33 1.98 0.66 3 1 C2.34 3.31 1.68 5.62 1 8 C0.01 7.67 -0.98 7.34 -2 7 C-1.34 4.69 -0.68 2.38 0 0 Z " fill="#D4E6FC" transform="translate(361,128)"/>
<path d="M0 0 C0.8125 1.6875 0.8125 1.6875 1 4 C-1.4375 6.75 -1.4375 6.75 -4 9 C-4 5.00095031 -2.27413033 3.19799578 0 0 Z " fill="#3867A6" transform="translate(271,241)"/>
<path d="M0 0 C0.66 0.33 1.32 0.66 2 1 C0.70700306 3.88437779 -0.65941363 5.87219421 -3 8 C-3.33 7.01 -3.66 6.02 -4 5 C-3.34 5 -2.68 5 -2 5 C-1.34 3.35 -0.68 1.7 0 0 Z " fill="#5493C3" transform="translate(238,233)"/>
<path d="M0 0 C0.33 1.32 0.66 2.64 1 4 C-0.4375 6.25 -0.4375 6.25 -2 8 C-2.99 7.67 -3.98 7.34 -5 7 C-3.35 4.69 -1.7 2.38 0 0 Z " fill="#4E79B2" transform="translate(280,229)"/>
<path d="M0 0 C0.99 0.99 1.98 1.98 3 3 C1.35 4.65 -0.3 6.3 -2 8 C-2.20086443 4.28400809 -2.1519437 3.22791555 0 0 Z " fill="#5193C4" transform="translate(261,200)"/>
<path d="M0 0 C2.31 0 4.62 0 7 0 C6.67 0.99 6.34 1.98 6 3 C4.02 3.33 2.04 3.66 0 4 C0 2.68 0 1.36 0 0 Z " fill="#D0E2FA" transform="translate(337,171)"/>
<path d="M0 0 C0.66 0 1.32 0 2 0 C2 2.31 2 4.62 2 7 C1.01 7.495 1.01 7.495 0 8 C-1.125 2.25 -1.125 2.25 0 0 Z " fill="#283054" transform="translate(316,142)"/>
<path d="M0 0 C0.66 0 1.32 0 2 0 C1.50168276 3.68754757 0.89932357 5.60490662 -2 8 C-2.33 7.01 -2.66 6.02 -3 5 C-2.34 5 -1.68 5 -1 5 C-0.67 3.35 -0.34 1.7 0 0 Z " fill="#5595CB" transform="translate(180,312)"/>
<path d="M0 0 C1.33332095 2.6666419 0.67102033 4.16680303 0 7 C-1.65 7.33 -3.3 7.66 -5 8 C-3.35 5.36 -1.7 2.72 0 0 Z " fill="#11478E" transform="translate(237,288)"/>
<path d="M0 0 C0.66 0.66 1.32 1.32 2 2 C0.35 4.31 -1.3 6.62 -3 9 C-3.33 7.68 -3.66 6.36 -4 5 C-2.0625 2.25 -2.0625 2.25 0 0 Z " fill="#081544" transform="translate(188,274)"/>
<path d="M0 0 C0.66 0 1.32 0 2 0 C1.6875 2.375 1.6875 2.375 1 5 C0.01 5.66 -0.98 6.32 -2 7 C-2.125 4.625 -2.125 4.625 -2 2 C-1.34 1.34 -0.68 0.68 0 0 Z " fill="#618FC1" transform="translate(299,228)"/>
<path d="M0 0 C0.66 0.33 1.32 0.66 2 1 C1.34 1.66 0.68 2.32 0 3 C-0.70710678 4.64991582 -1.37943989 6.31562256 -2 8 C-2.99 7.67 -3.98 7.34 -5 7 C-4.34 6.67 -3.68 6.34 -3 6 C-2.29788106 4.34795544 -1.63028587 2.68076231 -1 1 C-0.67 0.67 -0.34 0.34 0 0 Z " fill="#72A2D2" transform="translate(297,209)"/>
<path d="M0 0 C0.66 0.33 1.32 0.66 2 1 C0.71937515 2.7074998 -0.61767557 4.37373596 -2 6 C-2.66 6 -3.32 6 -4 6 C-3.67 4.35 -3.34 2.7 -3 1 C-2.01 0.67 -1.02 0.34 0 0 Z " fill="#5493C3" transform="translate(270,191)"/>
<path d="M0 0 C0.33 1.32 0.66 2.64 1 4 C0.01 4.495 0.01 4.495 -1 5 C-2.32 4.01 -3.64 3.02 -5 2 C-2 0 -2 0 0 0 Z " fill="#AFCCE9" transform="translate(342,127)"/>
</svg>
